<svg xmlns="http://www.w3.org/2000/svg" viewBox="0 0 500 500"><g id="freepik--Floor--inject-12"><path id="freepik--floor--inject-12" d="M87.86,449.93c-89.55-51.7-89.55-135.53,0-187.23s234.73-51.7,324.28,0,89.55,135.53,0,187.23S177.41,501.63,87.86,449.93Z" style="fill:#f5f5f5"></path></g><g id="freepik--Shadows--inject-12"><path id="freepik--Shadow--inject-12" d="M78,462.25l-9.33-5.49a5.8,5.8,0,0,0-5.26,0l-14.47,8.36a5.8,5.8,0,0,1-5.26,0L14,448c-1.45-.84-1.45-2.19,0-3l162.47-93.8a5.8,5.8,0,0,1,5.26,0l29.63,17.12c1.46.84,1.46,2.21,0,3.06l-14.5,8.52c-1.45.85-1.44,2.21,0,3l9.31,5.31c1.46.83,1.46,2.18,0,3l-123,71A5.87,5.87,0,0,1,78,462.25Z" style="fill:#e0e0e0"></path><ellipse id="freepik--shadow--inject-12" cx="408.42" cy="408.43" rx="65.44" ry="37.78" style="fill:#e0e0e0"></ellipse></g><g id="freepik--Pictures--inject-12"><g id="freepik--Picture--inject-12"><g id="freepik--Frame--inject-12"><polygon points="195.04 90.42 196.74 91.43 231.45 71.39 229.76 70.38 195.04 90.42" style="fill:#fafafa"></polygon><polygon points="229.76 70.38 196.74 89.44 196.74 54.86 229.76 35.81 229.76 70.38" style="fill:#fff"></polygon><path d="M234.64,29.29,193.54,53V97l41.1-23.73Zm-3.19,42.1-34.71,20V54.86l34.71-20Z" style="fill:#f0f0f0"></path><polygon points="231.45 71.39 229.76 70.38 229.76 35.81 231.45 34.82 231.45 71.39" style="fill:#e0e0e0"></polygon><polygon points="234.65 29.29 232.93 28.3 191.82 52.03 193.54 53.02 234.65 29.29" style="fill:#fafafa"></polygon><polygon points="191.82 52.03 193.54 53.02 193.54 96.96 191.82 95.98 191.82 52.03" style="fill:#e0e0e0"></polygon></g><g id="freepik--Land--inject-12"><polygon points="228.47 69.35 198.03 86.92 198.03 78.14 205.64 60.56 210.38 64.95 208.67 72.32 219.19 49.84 228.47 60.56 228.47 69.35" style="fill:#f0f0f0"></polygon><path d="M210.09,52.07a5,5,0,0,0-2.25,3.9c0,1.44,1,2,2.25,1.3a5,5,0,0,0,2.25-3.9C212.34,51.93,211.34,51.35,210.09,52.07Z" style="fill:#f0f0f0"></path></g></g><g id="freepik--picture--inject-12"><g id="freepik--frame--inject-12"><polygon points="249.71 94.59 251.4 95.6 286.12 75.56 284.43 74.55 249.71 94.59" style="fill:#fafafa"></polygon><polygon points="284.43 74.55 251.4 93.61 251.4 59.03 284.43 39.98 284.43 74.55" style="fill:#fff"></polygon><path d="M289.31,33.46l-41.1,23.73v43.94l41.1-23.73Zm-3.19,42.1-34.72,20V59l34.72-20Z" style="fill:#f0f0f0"></path><polygon points="286.12 75.56 284.43 74.55 284.43 39.98 286.12 38.99 286.12 75.56" style="fill:#e0e0e0"></polygon><polygon points="289.31 33.46 287.59 32.47 246.49 56.2 248.21 57.19 289.31 33.46" style="fill:#fafafa"></polygon><polygon points="246.49 56.2 248.21 57.19 248.21 101.13 246.49 100.15 246.49 56.2" style="fill:#e0e0e0"></polygon></g><g id="freepik--land--inject-12"><polygon points="283.14 73.52 252.69 91.09 252.69 82.31 260.3 64.73 265.04 69.12 263.34 76.49 273.85 54.01 283.14 64.73 283.14 73.52" style="fill:#f0f0f0"></polygon><path d="M264.76,56.24a5,5,0,0,0-2.25,3.9c0,1.44,1,2,2.25,1.3a5,5,0,0,0,2.25-3.9C267,56.1,266,55.52,264.76,56.24Z" style="fill:#f0f0f0"></path></g></g></g><g id="freepik--Window--inject-12"><g id="freepik--window--inject-12"><g id="freepik--window--inject-12"><g id="freepik--frame--inject-12"><polygon points="485.09 226.04 483.15 227.19 417.27 189.16 419.21 188 485.09 226.04" style="fill:#fafafa"></polygon><polygon points="419.21 188 483.15 224.91 483.15 68.77 419.21 31.87 419.21 188" style="fill:#fff"></polygon><path d="M413.62,191.27l73.19,42.25V66.66L413.62,24.4Zm3.65-160.54,65.88,38V227.19l-65.88-38Z" style="fill:#f0f0f0"></path><polygon points="417.27 189.16 419.21 188 419.21 31.87 417.27 30.73 417.27 189.16" style="fill:#e0e0e0"></polygon><polygon points="483.15 179.6 483.15 181.87 417.27 143.84 419.21 142.68 483.15 179.6" style="fill:#fafafa"></polygon><polygon points="483.15 107.61 483.15 109.88 417.27 71.85 419.21 70.69 483.15 107.61" style="fill:#fafafa"></polygon><polygon points="413.62 24.4 415.58 23.28 488.77 65.53 486.81 66.66 413.62 24.4" style="fill:#fafafa"></polygon><polygon points="488.77 65.53 486.81 66.66 486.81 233.52 488.77 232.4 488.77 65.53" style="fill:#e0e0e0"></polygon><polygon points="454.98 52.5 453.01 51.37 453.01 209.79 454.98 208.67 454.98 52.5" style="fill:#e0e0e0"></polygon></g><polygon points="449.35 49.26 453.01 51.37 453.01 209.79 449.35 207.68 449.35 49.26" style="fill:#f0f0f0"></polygon><polygon points="413.62 69.74 413.62 73.95 486.81 116.21 486.81 111.99 413.62 69.74" style="fill:#f0f0f0"></polygon><polygon points="413.62 141.72 413.62 145.93 486.81 188.19 486.81 183.97 413.62 141.72" style="fill:#f0f0f0"></polygon><polygon points="453.01 92.48 454.98 91.34 483.15 107.61 483.15 109.88 453.01 92.48" style="fill:#fafafa"></polygon><polygon points="453.01 164.44 454.98 163.31 483.15 179.57 483.15 181.85 453.01 164.44" style="fill:#fafafa"></polygon></g></g></g><g id="freepik--Icon--inject-12"><g id="freepik--social-icon--inject-12"><path d="M36.54,51.19,61.25,36.93a8.49,8.49,0,0,1,7.67,0l.23.13A8.45,8.45,0,0,1,73,43.7V72.23a8.45,8.45,0,0,1-3.83,6.64L44.44,93.14a8.49,8.49,0,0,1-7.67,0L36.54,93a8.49,8.49,0,0,1-3.83-6.64V57.84A8.48,8.48,0,0,1,36.54,51.19Z" style="fill:#7E57C2"></path><path d="M36.54,51.19,61.25,36.93a8.49,8.49,0,0,1,7.67,0l.23.13A8.45,8.45,0,0,1,73,43.7V72.23a8.45,8.45,0,0,1-3.83,6.64L44.44,93.14a8.49,8.49,0,0,1-7.67,0L36.54,93a8.49,8.49,0,0,1-3.83-6.64V57.84A8.48,8.48,0,0,1,36.54,51.19Z" style="fill:#fff;opacity:0.7000000000000001"></path><path d="M73,43.7c0-2.45-1.71-3.44-3.83-2.21L44.44,55.75a8.48,8.48,0,0,0-3.84,6.64V90.93c0,2.44,1.72,3.43,3.84,2.21L69.15,78.87A8.45,8.45,0,0,0,73,72.23Z" style="fill:#7E57C2"></path><path d="M73,43.7c0-2.45-1.71-3.44-3.83-2.21L44.44,55.75a8.48,8.48,0,0,0-3.84,6.64V90.93c0,2.44,1.72,3.43,3.84,2.21L69.15,78.87A8.45,8.45,0,0,0,73,72.23Z" style="fill:#fff;opacity:0.55"></path><path d="M32.71,86.37A8.49,8.49,0,0,0,36.54,93l.23.13a8.59,8.59,0,0,0,7,.31c-1.8.68-3.18-.34-3.18-2.52V62.39a7.82,7.82,0,0,1,1.13-3.78l-7.9-4.55a7.85,7.85,0,0,0-1.12,3.78Z" style="fill:#7E57C2"></path><path d="M32.71,86.37A8.49,8.49,0,0,0,36.54,93l.23.13a8.59,8.59,0,0,0,7,.31c-1.8.68-3.18-.34-3.18-2.52V62.39a7.82,7.82,0,0,1,1.13-3.78l-7.9-4.55a7.85,7.85,0,0,0-1.12,3.78Z" style="fill:#fff;opacity:0.4"></path><path d="M57.4,56.81c2.53-1.46,2.83-1.62,3.83-2.13A4.18,4.18,0,0,1,63,54.1a1.5,1.5,0,0,1,1.09.31,2,2,0,0,1,.7,1.05,6.82,6.82,0,0,1,.33,2.15c0,1.31,0,1.7,0,5.07s0,3.78,0,5.14a11.33,11.33,0,0,1-.33,2.53,7.74,7.74,0,0,1-.7,1.86A7.29,7.29,0,0,1,63,73.78a8.12,8.12,0,0,1-1.76,1.45c-1,.64-1.3.83-3.83,2.29s-2.83,1.62-3.83,2.13a4.2,4.2,0,0,1-1.75.58,1.47,1.47,0,0,1-1.09-.31,2,2,0,0,1-.71-1,7.07,7.07,0,0,1-.33-2.15c0-1.31,0-1.7,0-5.07s0-3.78,0-5.14A12,12,0,0,1,50,64a7.76,7.76,0,0,1,.71-1.86,6.65,6.65,0,0,1,1.09-1.57,8,8,0,0,1,1.75-1.45c1-.64,1.3-.83,3.83-2.29m0-2.27c-2.57,1.48-2.89,1.69-3.9,2.33a10.73,10.73,0,0,0-2.3,1.91,11.38,11.38,0,0,0-1.68,2.43,12.1,12.1,0,0,0-1.09,2.87A14.43,14.43,0,0,0,48,67.39c-.05,1.38-.06,1.81-.06,5.24s0,3.86.06,5.18a8.92,8.92,0,0,0,.44,2.81,3.17,3.17,0,0,0,1.09,1.6,2.36,2.36,0,0,0,1.68.49A5.77,5.77,0,0,0,53.5,82c1-.52,1.33-.69,3.9-2.18s2.9-1.68,3.91-2.33a10.91,10.91,0,0,0,2.29-1.91,10.48,10.48,0,0,0,1.68-2.43,12,12,0,0,0,1.09-2.86,14.61,14.61,0,0,0,.44-3.32c0-1.38.06-1.81.06-5.24s0-3.85-.06-5.17a8.94,8.94,0,0,0-.44-2.82,3.17,3.17,0,0,0-1.09-1.6,2.34,2.34,0,0,0-1.68-.49,5.69,5.69,0,0,0-2.29.74c-1,.52-1.34.69-3.91,2.18" style="fill:#fff"></path><path d="M57.4,60.68c-2.68,1.55-4.86,5.71-4.86,9.29s2.18,5.23,4.86,3.68,4.86-5.71,4.86-9.29-2.17-5.23-4.86-3.68m0,10.69c-1.74,1-3.15-.06-3.15-2.38a7.54,7.54,0,0,1,3.15-6c1.74-1,3.16.06,3.16,2.38a7.55,7.55,0,0,1-3.16,6" style="fill:#fff"></path><path d="M61.46,58.25c0,.84.51,1.22,1.14.86a2.7,2.7,0,0,0,1.13-2.17c0-.84-.5-1.22-1.13-.86a2.72,2.72,0,0,0-1.14,2.17" style="fill:#fff"></path></g></g><g id="freepik--Device--inject-12"><g id="freepik--Mobile--inject-12"><path d="M176.48,369.9V52.39c0-7.51-3.73-9.58-7-11.49s-8.77-3.07-13.48-.35L35.4,110.15c-4.71,2.71-8.52,9.32-8.52,14.76V442.42c0,5.44,3.41,8.64,6.72,10.56s9.09,4,13.8,1.29L168,384.67A16.06,16.06,0,0,0,176.48,369.9Z" style="fill:#37474f"></path><path d="M168.81,372.67l-124,71.57,0-318.77-15.51-9a17.43,17.43,0,0,0-2.49,8.4V442.42c0,5.44,3.41,8.64,6.72,10.56s9.09,4,13.8,1.29L168,384.67a16.26,16.26,0,0,0,7.38-8.24l-.48-.27Z" style="fill:#263238"></path><path d="M167.73,49.87l-120.9,69.8a13.25,13.25,0,0,0-6,10.36V445.17c0,5.83,4.15,8.22,9.21,5.3l117.68-67.94a15.06,15.06,0,0,0,6.78-11.74v-317C174.51,49.48,171.45,47.72,167.73,49.87Z" style="fill:#455a64"></path><path d="M168.61,67.63V363.88A14.28,14.28,0,0,1,162.17,375L53.18,438c-3.55,2.06-6.44.4-6.44-3.72V136a14.39,14.39,0,0,1,4.52-9.71l.61-.55a10.91,10.91,0,0,1,1.31-.9l30.66-17.7,2-1.15c1.11-.64,2-.13,2,1.15s1,1.76,2.14,1.07L125.7,87.61a4.58,4.58,0,0,0,2.13-3.53,4.53,4.53,0,0,1,1.79-3.35l.21-.13,30-17.31.64-.37C165,60.33,168.61,62.45,168.61,67.63Z"></path><path d="M152.82,367.81a14.27,14.27,0,0,0,6.43-11.16v-293l-29.42,17-.21.13a4.53,4.53,0,0,0-1.79,3.35,4.58,4.58,0,0,1-2.13,3.53L90,108.23c-1.18.69-2.14.2-2.14-1.07s-.89-1.79-2-1.15l-2,1.15-30.66,17.7a10.91,10.91,0,0,0-1.31.9l-.61.55A14.39,14.39,0,0,0,46.74,136v293Z" style="fill:#263238"></path><path d="M95.39,97.34l16.38-9.46c1-.56,1.77-.16,1.77.9a3.8,3.8,0,0,1-1.77,2.94l-16.38,9.45c-1,.57-1.77.17-1.77-.89A3.81,3.81,0,0,1,95.39,97.34Z" style="fill:#263238"></path><path d="M120.17,82.26c1.1-.64,2-.12,2,1.15a4.42,4.42,0,0,1-2,3.45c-1.1.63-2,.12-2-1.15A4.39,4.39,0,0,1,120.17,82.26Z" style="fill:#263238"></path><path d="M38.06,175.55a7.22,7.22,0,0,0-3.15-5.7,2.12,2.12,0,0,0-2.16-.18c-.4.24-1.95,1.11-2.36,1.36a2.44,2.44,0,0,0-1,2.23v23.79a7.22,7.22,0,0,0,3.15,5.7,2.14,2.14,0,0,0,2.08.22c.43-.23,2-1.15,2.43-1.39a2.45,2.45,0,0,0,1-2.24Z" style="fill:#455a64"></path><path d="M35.72,176.9v23.79c0,2.14-1.41,3.06-3.15,2.06a7.22,7.22,0,0,1-3.15-5.7V173.26c0-2.14,1.41-3.06,3.15-2.06A7.22,7.22,0,0,1,35.72,176.9Z" style="fill:#37474f"></path><path d="M38.06,217.18a7.22,7.22,0,0,0-3.15-5.7,2.09,2.09,0,0,0-2.16-.17c-.4.24-1.95,1.1-2.36,1.35a2.47,2.47,0,0,0-1,2.24v23.78a7.19,7.19,0,0,0,3.15,5.7,2.14,2.14,0,0,0,2.08.22c.43-.23,2-1.15,2.43-1.39a2.45,2.45,0,0,0,1-2.24Z" style="fill:#455a64"></path><path d="M35.72,218.53v23.79c0,2.14-1.41,3.07-3.15,2.06a7.19,7.19,0,0,1-3.15-5.7V214.9c0-2.15,1.41-3.07,3.15-2.06A7.18,7.18,0,0,1,35.72,218.53Z" style="fill:#37474f"></path></g></g><g id="freepik--Screen--inject-12"><g id="freepik--window--inject-12"><path d="M191.55,71.52,74.06,139.26a5.83,5.83,0,0,0-2.65,4.58V448.55a5.82,5.82,0,0,0,2.65,4.57l1.65.95a5.92,5.92,0,0,0,5.3,0L198.5,386.2a5.83,5.83,0,0,0,2.64-4.58V77a5.81,5.81,0,0,0-2.65-4.57l-1.65-.94A5.84,5.84,0,0,0,191.55,71.52Z" style="fill:#7E57C2"></path><path d="M191.55,71.52,74.06,139.26a5.83,5.83,0,0,0-2.65,4.58V448.55a5.82,5.82,0,0,0,2.65,4.57l1.65.95a5.92,5.92,0,0,0,5.3,0L198.5,386.2a5.83,5.83,0,0,0,2.64-4.58V77a5.81,5.81,0,0,0-2.65-4.57l-1.65-.94A5.84,5.84,0,0,0,191.55,71.52Z" style="opacity:0.25"></path><path d="M80.39,453c-1,0-1.07-1.16-1.07-1.66V149a6.35,6.35,0,0,1,3.16-5.48L198,76.78a1.49,1.49,0,0,1,2.23,1.29V381.81c0,1.6-1,2.88-3.18,4.15L81.54,452.63A2.44,2.44,0,0,1,80.39,453Z" style="fill:#fafafa"></path><path d="M198.7,77.53a.54.54,0,0,1,.54.54V381.81c0,.87-.32,1.95-2.7,3.32L81.06,451.81a1.7,1.7,0,0,1-.67.24,1.73,1.73,0,0,1-.12-.71V149A5.38,5.38,0,0,1,83,144.32L198.44,77.61a.52.52,0,0,1,.26-.08m0-1.9a2.38,2.38,0,0,0-1.21.33L82,142.66A7.31,7.31,0,0,0,78.36,149V451.34c0,1.66.83,2.61,2,2.61a3.39,3.39,0,0,0,1.63-.49l115.47-66.68c2-1.16,3.65-2.64,3.65-5V78.07a2.43,2.43,0,0,0-2.44-2.44Z" style="fill:#7E57C2"></path><path d="M201.15,77v1a2.44,2.44,0,0,0-3.67-2.1L82,142.67a7.08,7.08,0,0,0-2.66,2.66l0,.08-7.15-4.13a5.45,5.45,0,0,1,1.91-2L191.55,71.52a5.84,5.84,0,0,1,5.29,0l1.65.94A5.83,5.83,0,0,1,201.15,77Z" style="fill:#7E57C2"></path><path d="M201.15,77v1a2.44,2.44,0,0,0-3.67-2.1L82,142.67a7.08,7.08,0,0,0-2.66,2.66l0,.08-7.15-4.13a5.45,5.45,0,0,1,1.91-2L191.55,71.52a5.84,5.84,0,0,1,5.29,0l1.65.94A5.83,5.83,0,0,1,201.15,77Z" style="fill:#fff;opacity:0.45"></path><g id="freepik--instagram-window--inject-12"><path d="M182.35,96.92a1.85,1.85,0,0,1-.77,1.48c-.43.25-.77,0-.77-.58a1.84,1.84,0,0,1,.77-1.48C182,96.09,182.35,96.35,182.35,96.92Z" style="fill:#455a64"></path><path d="M181.58,94.65a4.5,4.5,0,0,0-1.8,2.48c-.07.21,0,.41.08.46h0c.15.07.37-.11.45-.38a3.18,3.18,0,0,1,1.27-1.75.83.83,0,0,1,1.27.29c.08.17.3.1.45-.14h0a.65.65,0,0,0,.08-.56A1.18,1.18,0,0,0,181.58,94.65Z" style="fill:#455a64"></path><path d="M181.58,93a7.07,7.07,0,0,0-2.76,3.62c-.09.23-.06.45.06.51h0c.15.06.35-.1.45-.36a5.77,5.77,0,0,1,2.25-3,1.56,1.56,0,0,1,2.26.35c.09.15.3.08.44-.15h0a.59.59,0,0,0,.06-.58A1.9,1.9,0,0,0,181.58,93Z" style="fill:#455a64"></path><path d="M93.11,149.25a.35.35,0,0,1,0,.17.29.29,0,0,1-.11.11l-.22.13s-.07,0-.1,0,0,0,0-.11v-4l-.88,1.4a.21.21,0,0,1-.11.1.09.09,0,0,1-.1,0l-.13-.15a.23.23,0,0,1,0-.13.44.44,0,0,1,.06-.16l1.16-1.85a.31.31,0,0,1,.08-.1l.09-.06.22-.13a.11.11,0,0,1,.11,0,.12.12,0,0,1,0,.11Z" style="fill:#455a64"></path><path d="M94.39,145.31a.09.09,0,0,1,.1,0,.12.12,0,0,1,0,.11v.49a.34.34,0,0,1,0,.16.27.27,0,0,1-.1.11l-.36.22s-.08,0-.1,0a.12.12,0,0,1-.05-.11v-.48a.33.33,0,0,1,.05-.16.24.24,0,0,1,.1-.12Zm0,2.53a.08.08,0,0,1,.1,0,.16.16,0,0,1,0,.12v.48a.29.29,0,0,1,0,.16.25.25,0,0,1-.1.12l-.36.21s-.08,0-.1,0a.13.13,0,0,1-.05-.11v-.48a.37.37,0,0,1,.05-.17.22.22,0,0,1,.1-.11Z" style="fill:#455a64"></path><path d="M97.05,147.17s-.07,0-.1,0,0,0,0-.11v-1l-1.7,1a.09.09,0,0,1-.1,0,.13.13,0,0,1,0-.11v-.26a.69.69,0,0,1,0-.13.44.44,0,0,1,.06-.16l1.71-4,.09-.18a.31.31,0,0,1,.12-.11l.22-.13a.09.09,0,0,1,.1,0,.12.12,0,0,1,0,.11v3l.47-.27a.09.09,0,0,1,.1,0A.13.13,0,0,1,98,145v.26a.33.33,0,0,1-.05.16.25.25,0,0,1-.1.12l-.47.27v1a.35.35,0,0,1,0,.17.27.27,0,0,1-.1.11Zm-.14-1.75v-2l-1.18,2.72Z" style="fill:#455a64"></path><path d="M98.94,144.87a.71.71,0,0,0,.08.18.24.24,0,0,0,.14.12.38.38,0,0,0,.26,0,1.45,1.45,0,0,0,.41-.18,1.41,1.41,0,0,0,.32-.24,1.69,1.69,0,0,0,.27-.32,2.32,2.32,0,0,0,.18-.39,1.63,1.63,0,0,0,.07-.45.8.8,0,0,0-.07-.35.27.27,0,0,0-.17-.16.5.5,0,0,0-.27,0,1.55,1.55,0,0,0-.33.15l-.45.26a.09.09,0,0,1-.1,0,.12.12,0,0,1,0-.11v-.26a.35.35,0,0,1,0-.14,1.12,1.12,0,0,0,0-.13l1-2-1.56.9a.09.09,0,0,1-.1,0,.13.13,0,0,1,0-.11v-.26a.37.37,0,0,1,0-.17.27.27,0,0,1,.1-.11l2.13-1.24a.11.11,0,0,1,.11,0,.19.19,0,0,1,0,.12v.26a.39.39,0,0,1,0,.14l-.07.16-1,1.93a1.24,1.24,0,0,1,.5-.17.53.53,0,0,1,.38.07.59.59,0,0,1,.25.32,1.49,1.49,0,0,1,.09.56,2.25,2.25,0,0,1-.11.72,3,3,0,0,1-.29.66,3.2,3.2,0,0,1-.42.55,2.44,2.44,0,0,1-.53.41,1.74,1.74,0,0,1-.62.25.65.65,0,0,1-.43,0,.47.47,0,0,1-.26-.26.91.91,0,0,1-.09-.41.25.25,0,0,1,0-.14.18.18,0,0,1,.08-.09l.25-.15s.07,0,.09,0S98.93,144.83,98.94,144.87Z" style="fill:#455a64"></path><path d="M173.19,103l-.67.39c-.07,0-.12,0-.12-.09v-1.46a.28.28,0,0,1,.12-.23l.67-.39c.07,0,.12,0,.12.09v1.47A.27.27,0,0,1,173.19,103Z" style="fill:#455a64"></path><path d="M174.6,102.21l-.68.39c-.06,0-.12,0-.12-.09v-2.3a.31.31,0,0,1,.12-.23l.68-.39c.06,0,.11,0,.11.09V102A.3.3,0,0,1,174.6,102.21Z" style="fill:#455a64"></path><path d="M176,101.4l-.67.39c-.07,0-.12,0-.12-.09V98.49a.27.27,0,0,1,.12-.22l.67-.39c.07,0,.12,0,.12.09v3.2A.28.28,0,0,1,176,101.4Z" style="fill:#e0e0e0"></path><path d="M177.41,100.59l-.68.39c-.06,0-.12,0-.12-.09V96.76a.31.31,0,0,1,.12-.23l.68-.39c.06,0,.12,0,.12.09v4.13A.31.31,0,0,1,177.41,100.59Z" style="fill:#e0e0e0"></path><path d="M191.31,88l-4.74,2.73a1.73,1.73,0,0,0-.72,1.38v2.69c0,.53.32.77.72.54l4.74-2.73a1.73,1.73,0,0,0,.72-1.38V88.53C192,88,191.71,87.75,191.31,88Zm.51,3.35a1.23,1.23,0,0,1-.51,1l-4.74,2.74c-.28.16-.51,0-.51-.39V92a1.23,1.23,0,0,1,.51-1l4.74-2.74c.28-.16.51,0,.51.4Zm-3.17-1.13-2.08,1.2a.51.51,0,0,0-.2.4v2.68c0,.15.09.22.2.15l2.08-1.2a.47.47,0,0,0,.21-.39V90.36C188.86,90.2,188.77,90.13,188.65,90.2Zm3.91-1.35-.3.18v1.69l.3-.19a1.16,1.16,0,0,0,.3-.85v-.34C192.86,89,192.72,88.76,192.56,88.85Z" style="fill:#455a64"></path><path d="M90.27,157.87a1.19,1.19,0,0,0-.63.48A8.64,8.64,0,0,0,88,162.49c-.11.91.31,1.57.89,1.49.08,0,.17-.1.26-.16a2.18,2.18,0,0,0,0-.29,2.71,2.71,0,0,1-.23-.64,6.68,6.68,0,0,1,.72-3.71l.2-.33c0,.16,0,.24,0,.33q0,3.28,0,6.58a10.81,10.81,0,0,1-.21,2.28,1.3,1.3,0,0,0,0,.34,1.64,1.64,0,0,0,.26-.2,3.72,3.72,0,0,0,.77-1.76,8.53,8.53,0,0,0,.15-1.47c0-2.19,0-4.36,0-6.53C90.77,157.86,90.68,157.76,90.27,157.87Zm33.36-12.21c0-.06-.09-.12-.14-.11s-.11.15-.14.24a2.41,2.41,0,0,0-.07.37c-.06.25-.1.5-.18.75-.14.46-.41.62-.54.32a1.78,1.78,0,0,1-.17-.72c0-1,0-2,0-3,0-.66,0-.77-.52-.73l-.16,0c-.28.06-.44.24-.54.66-.21,1-.41,2-.61,3a2,2,0,0,0,0,.24.12.12,0,0,1-.06-.11c0-.69-.07-1.37-.07-2.08s-.19-.82-.73-.61a.65.65,0,0,0-.36.46c-.11.41-.22.81-.32,1.21s-.18.82-.27,1.22a.36.36,0,0,1,0-.21v-1.21c0-.75.07-.75-.57-.54-.25.08-.31.18-.31.53,0,1.09,0,2.18,0,3.28a4.31,4.31,0,0,1-.41,1.66c-.2.42-.45.51-.57.2a.61.61,0,0,1-.06-.24c0-.36-.07-.72-.07-1.1,0-1,0-1.94,0-2.91,0-.09,0-.22,0-.25s-.43,0-.67.13-.18.34-.22.56l-.09-.08c-.48-.42-1.19,0-1.64,1a7.44,7.44,0,0,0-.45,1.33,7.9,7.9,0,0,0-.15,2.79,1.8,1.8,0,0,1-.23,1c-.17.35-.41.48-.55.26a1.53,1.53,0,0,1-.19-.57,8,8,0,0,1,.09-2.37c0-.36.11-.71.13-1.05s-.15-.5-.41-.35a3.63,3.63,0,0,0-.46.34c-.22.17-.45.35-.68.55,0-.16,0-.26,0-.36,0-.4-.16-.53-.45-.34a1.35,1.35,0,0,0-.57.86c-.11.41-.13.78.09.94s.11.2.07.39a16.9,16.9,0,0,1-.94,3.15c0,.05,0,.1-.08.18a1.36,1.36,0,0,1,0-.18l0-3.55c0-.39,0-.43-.31-.38a.7.7,0,0,0-.18.05,1.11,1.11,0,0,0-.33.25,1.58,1.58,0,0,0-.14.42l-.1-.1c-.41-.34-1-.05-1.47.73a5.67,5.67,0,0,0-.42,1,8,8,0,0,0-.36,3.21,2.42,2.42,0,0,1-.2,1.13.74.74,0,0,1-.35.46c-.16.06-.26,0-.29-.21a3.86,3.86,0,0,1-.11-.78c0-1.08,0-2.17,0-3.25,0-.46,0-.51-.37-.43l-.15.05c-.31.12-.37.21-.44.68,0,0,0-.06-.06-.08-.49-.44-1.22,0-1.67,1a6.9,6.9,0,0,0-.45,1.35c-.11.62-.15,1.23-.2,1.84a4.77,4.77,0,0,1-.6,2c-.21.37-.39.43-.5.15a1.77,1.77,0,0,1-.12-.59c0-1.41,0-2.83,0-4.24a.26.26,0,0,1,.16-.26l1-.56a.81.81,0,0,0,.29-.7c0-.26-.12-.19-.25-.12l-1.11.55a.78.78,0,0,0,0-.09c0-.33,0-.65,0-1,0-.64,0-.66-.43-.55s-.57.22-.59.93v1.23a8.85,8.85,0,0,1-.81.41.61.61,0,0,0-.34.53c0,.11,0,.23,0,.34s0,.27.21.17l.9-.53v.34c0,.75,0,1.51,0,2.25a5.44,5.44,0,0,1-.62,2.38,1.08,1.08,0,0,1-.11.18,5.41,5.41,0,0,0,0-.59,1,1,0,0,0-.6-.82l-.87-.37a2.93,2.93,0,0,0,.12-.28c.12-.39.27-.79.35-1.17s0-.59-.33-.47a1.86,1.86,0,0,0-.93,1.14,1.47,1.47,0,0,0,0,1.38.25.25,0,0,1,0,.3c-.31.87-.61,1.75-.92,2.62a4.47,4.47,0,0,1-.27.59c-.13.22-.23.24-.27,0a4.2,4.2,0,0,1-.06-.72c0-.92,0-1.85,0-2.77a1.2,1.2,0,0,0-.06-.49c-.21-.43-.87-.26-1.22.33a6.15,6.15,0,0,0-.57,1.25c-.21.63-.35,1.27-.51,1.9l-.09.33c0-.74,0-1.48,0-2.22,0-.58,0-.62-.47-.49l-.15.06a.4.4,0,0,0-.24.43c0,.4,0,.8,0,1.21,0,1.24,0,2.49,0,3.72,0,.61.22.7.67.36a.53.53,0,0,0,.23-.41c.09-.69.19-1.37.32-2.06a14,14,0,0,1,.94-3.13c.06-.12.11-.25.16-.38l.07,0V160c0,.81,0,1.62-.07,2.43a5.82,5.82,0,0,0,.14,1.71c.13.46.47.45.85,0a2.51,2.51,0,0,0,.32-.48c.22-.47.45-.94.64-1.42.28-.76.54-1.52.81-2.27l.11-.27.54.36a1,1,0,0,1,.18.17,1.07,1.07,0,0,1,.24.9c-.07.58-.38,1-.74.92a.79.79,0,0,1-.22-.06c-.31-.12-.44,0-.63.56s-.11.63.18.63a2.18,2.18,0,0,0,1.48-.69,5,5,0,0,0,1.27-2.09c.1-.28.19-.58.31-.93,0,.13,0,.21,0,.29a2.42,2.42,0,0,0,.33,1.11c.26.38.89.38,1.39-.63.12-.25.23-.52.33-.79a6.12,6.12,0,0,0,.2-.64c.19.67.46,1.19,1.14.86a3.33,3.33,0,0,0,1.37-2c.13.61.37.83.76.7.56-.19.88-.8,1.12-1.57.24.45.57.65,1.08.34a3.21,3.21,0,0,0,1.13-1.54,1.2,1.2,0,0,1-.17.93c-.43.75-.84,1.51-1.23,2.29a5.67,5.67,0,0,0-.4,1.11c-.25,1,.06,1.57.7,1.45a2.68,2.68,0,0,0,1.7-2.05,6.22,6.22,0,0,0,.22-1.24c0-.83,0-1.64.06-2.47a1.11,1.11,0,0,1,.11-.46,25.54,25.54,0,0,0,1.42-4,2.42,2.42,0,0,1,.21-.73c.13-.19.34-.24.52-.37s.19-.06.16.17a10.94,10.94,0,0,0-.16,2.51c.06.69.22,1.25.74,1.32s.75-.23,1.06-.81c.11-.22.19-.45.29-.67.57,1,1.76,0,2.32-1.65.12.54.36.84.83.68s.78-.75,1-1.48a1.19,1.19,0,0,1,0,.2c0,.54.12.6.54.39l.24-.15a.59.59,0,0,0,.28-.55c0-.34,0-.68,0-1a12.52,12.52,0,0,1,.56-3.16c0-.11.09-.21.16-.39a1.58,1.58,0,0,1,0,.23c0,.37,0,.75,0,1.11,0,.65.1,1.3.2,1.91s.37.56.75.24a.57.57,0,0,0,.2-.44,16.37,16.37,0,0,1,.63-4,2.18,2.18,0,0,1,.09-.24v.31c0,.82,0,1.65.06,2.45,0,.58.17,1.08.56,1.23s1-.28,1.24-1.08a10.75,10.75,0,0,0,.27-1.35A.38.38,0,0,0,123.63,145.66Zm-19.74,11.8a3.88,3.88,0,0,1-.26.72c-.27.56-.62.71-.79.31a3.56,3.56,0,0,1-.19-.93,6.92,6.92,0,0,1,.12-2.05,3.8,3.8,0,0,1,.24-.77c.27-.64.75-.87.92-.4a3.63,3.63,0,0,1,.18,1.23A7.47,7.47,0,0,1,103.89,157.46Zm4.23-2.44a4.35,4.35,0,0,1-.28.76c-.26.52-.6.66-.75.29a3.61,3.61,0,0,1-.21-.94A7,7,0,0,1,107,153a4.21,4.21,0,0,1,.3-.84c.29-.56.72-.71.85-.27a4.86,4.86,0,0,1,.13,1.44A5.82,5.82,0,0,1,108.12,155Zm.15,4.57a1.92,1.92,0,0,1-.44,1c-.34.35-.66.27-.67-.21a3.12,3.12,0,0,1,.1-.72,12.37,12.37,0,0,1,1.19-2.65A12.88,12.88,0,0,1,108.27,159.59Zm7.24-8.76a4.59,4.59,0,0,1-.27.7c-.25.48-.57.61-.72.28a2.59,2.59,0,0,1-.21-.88,7.35,7.35,0,0,1,.09-2.07,4,4,0,0,1,.24-.82c.28-.67.78-.9.94-.41a3.5,3.5,0,0,1,.17,1.3A6.44,6.44,0,0,1,115.51,150.83Z" style="fill:#455a64"></path><path d="M159.37,123.11l-1.33.77V122.1c0-.22-.14-.33-.31-.23a.74.74,0,0,0-.31.59v1.77l-1.33.77a.74.74,0,0,0-.31.59c0,.23.14.33.31.24l1.33-.77v1.77c0,.23.14.33.31.23a.73.73,0,0,0,.31-.59V124.7l1.33-.77a.73.73,0,0,0,.31-.59C159.68,123.11,159.54,123,159.37,123.11Zm-.31-4-2.66,1.53a5.55,5.55,0,0,0-2.31,4.41v3.14c0,1.69,1,2.47,2.31,1.74l2.66-1.54a5.53,5.53,0,0,0,2.31-4.4V120.8C161.37,119.1,160.33,118.32,159.06,119.06Zm1.69,5.23a4.07,4.07,0,0,1-1.69,3.23l-2.66,1.53c-.93.54-1.69,0-1.69-1.27v-3.14a4,4,0,0,1,1.69-3.22l2.66-1.54c.93-.54,1.69,0,1.69,1.27Z" style="fill:#455a64"></path><path d="M174.2,111a4,4,0,0,0-1.44,1.63,1.42,1.42,0,0,0-.08.18l-.1-.08a1.21,1.21,0,0,0-1.43,0,4.83,4.83,0,0,0-2,3.83,1.84,1.84,0,0,0,.65,1.59l2.65,2a.2.2,0,0,0,.22,0,.58.58,0,0,0,.22-.24l2.71-5.18a4.8,4.8,0,0,0,.6-2.25C176.2,111.06,175.31,110.38,174.2,111Zm1,3.41-.06.12-2.45,4.67-2.44-1.86,0,0a1.26,1.26,0,0,1-.41-1.06,3.34,3.34,0,0,1,1.38-2.66.87.87,0,0,1,1,0,.88.88,0,0,1,.26.34.19.19,0,0,0,.29.06.66.66,0,0,0,.27-.4,3.75,3.75,0,0,1,.25-.61,2.78,2.78,0,0,1,1-1.13c.76-.44,1.38,0,1.38,1.06A3.26,3.26,0,0,1,175.18,114.43Z" style="fill:#455a64"></path><path d="M189.1,105.39l-.56,1c-.15.26-.37.39-.52.29l-.58-.4c-.17-.11-.45.09-.58.43l-.83,2.09c-.11.27.09.39.24.15l.5-.88c.15-.26.37-.38.52-.29l.66.43c.17.12.46-.1.59-.45l.8-2.21C189.43,105.26,189.23,105.15,189.1,105.39Zm-1.42-2.74a8,8,0,0,0-3.33,6.37,3.13,3.13,0,0,0,1,2.55v1.36a.21.21,0,0,0,.31.24.63.63,0,0,0,.13-.11l1-1.19a2.83,2.83,0,0,0,.9-.34,8,8,0,0,0,3.33-6.36C191,102.72,189.52,101.59,187.68,102.65Zm0,8.06a2.32,2.32,0,0,1-.85.29.45.45,0,0,0-.28.23l-.61.71v-.76a.38.38,0,0,0-.08-.38,2.41,2.41,0,0,1-.89-2.14,6.51,6.51,0,0,1,2.71-5.18c1.5-.86,2.71.06,2.71,2A6.49,6.49,0,0,1,187.68,110.71Z" style="fill:#455a64"></path><path d="M101.78,182.69c0,5.68-3.45,12.27-7.71,14.73s-7.71-.15-7.71-5.82,3.46-12.28,7.71-14.73S101.78,177,101.78,182.69Z" style="fill:#fff"></path><path d="M94.07,191.21a6.39,6.39,0,0,0,2.67-5.09c0-2-1.2-2.87-2.67-2a6.38,6.38,0,0,0-2.66,5.09C91.41,191.15,92.6,192.06,94.07,191.21Z" style="fill:#7E57C2"></path><path d="M98.23,181.66a7.39,7.39,0,0,1-1.83,1,.43.43,0,0,1,0-.07.52.52,0,0,1-.12-.3c0-.32-.07-.47-.3-.32a10.78,10.78,0,0,0-.28-1.64h0a4.32,4.32,0,0,0-.19-.6,7.71,7.71,0,0,0-.94-1.46c-.22-.28-.4,0-.88.32s-.41.79-1.43,1.74l-1,.88a2.9,2.9,0,0,0-.59.58c-.19.28.4.68,2-.4,0,0-.06.31-.15.74-.13.61-.29,1.47-.36,2-.18.12-.22.31-.24.63s-.25.67-.27.88a7.7,7.7,0,0,0-2,1.82c-.3.48-.28.77,0,.9h0a1.44,1.44,0,0,0,.92,0A11.75,11.75,0,0,0,93.39,187a1,1,0,0,0,.3,0,5.55,5.55,0,0,0,2.24-1.25l.57-.57h0a11,11,0,0,0,1.73-2.33C99,181.41,98.7,181.15,98.23,181.66Z" style="fill:#455a64"></path><path d="M94.07,197.42a14.35,14.35,0,0,0,4.85-5.09l0-.38c-.09-1.37-.93-2-1.93-1.4l-5.79,3.34a4.79,4.79,0,0,0-1.93,3.63l0,.41A5,5,0,0,0,94.07,197.42Z" style="fill:#7E57C2"></path><path d="M94.07,197.67c-4.35,2.52-7.89-.16-7.89-6s3.54-12.57,7.89-15.08,7.9.16,7.9,6S98.43,195.16,94.07,197.67Zm0-20.56c-4.14,2.4-7.52,8.85-7.52,14.38s3.38,8.08,7.52,5.68,7.52-8.84,7.52-14.37S98.22,174.72,94.07,177.11Z" style="fill:#455a64"></path><path d="M94.07,199.25c-5,2.9-9.08-.18-9.08-6.86s4.08-14.47,9.08-17.36,9.09.19,9.09,6.87S99.08,196.36,94.07,199.25Zm0-23.39c-4.66,2.69-8.46,9.95-8.46,16.17s3.8,9.09,8.46,6.4,8.47-10,8.47-16.17S98.74,173.16,94.07,175.86Z" style="fill:#e0e0e0"></path><path d="M101.15,200.24,87,208.41c-.52.3-.93,0-.93-.7h0a2.23,2.23,0,0,1,.93-1.79l14.16-8.18c.52-.3.94,0,.94.71h0A2.24,2.24,0,0,1,101.15,200.24Z" style="fill:#e0e0e0"></path><ellipse cx="116.91" cy="173.96" rx="11.83" ry="6.7" transform="translate(-88.93 213.42) rotate(-66.95)" style="fill:#fff"></ellipse><path d="M114.11,173.5c-.23.74-.39.09-1.45,0s-1.45,1.24-1.69,2.22-.51,1.57-1.18,1.62c0,0,.46.77,1.33-.07s1.22-1.19,1.47-.5.7.15,1.33-.51.58.64,1,1.82,2.13,1.55,3.68.08,2.09-1.74,2.08-.93.41,1.36,1.26.42c0,0-.94.36-.61-.62s.53-1.85,0-2.13-1.65,1.05-1.87-.35.34-2.24.7-2.19.84-.51,1.1-1.47.61-.91,1.15-.84.89-.58,1.09-1.34c0,0-.43.64-.87.21s-.66-1.41-1.61-.85-1,1.85-1.33,1.88.46-4-2.45-2.76S114.37,172.7,114.11,173.5Z" style="fill:#455a64"></path><path d="M115.55,171.22l1-.06s-.25.71-.75.81S115.55,171.22,115.55,171.22Z" style="fill:#7E57C2"></path><path d="M118.74,169.56l-1.08,1.06s.21.47.73,0A1.17,1.17,0,0,0,118.74,169.56Z" style="fill:#7E57C2"></path><path d="M116.91,184.49c-4.35,2.51-7.89-.17-7.89-6s3.54-12.58,7.89-15.09,7.9.16,7.9,6S121.27,182,116.91,184.49Zm0-20.56c-4.14,2.39-7.52,8.84-7.52,14.37s3.38,8.08,7.52,5.69,7.52-8.85,7.52-14.38S121.06,161.53,116.91,163.93Z" style="fill:#455a64"></path><path d="M116.91,186.07c-5,2.89-9.08-.19-9.08-6.87s4.07-14.46,9.08-17.35,9.09.19,9.09,6.86S121.92,183.18,116.91,186.07Zm0-23.4c-4.66,2.7-8.46,10-8.46,16.17s3.8,9.1,8.46,6.4,8.47-10,8.47-16.17S121.58,160,116.91,162.67Z" style="fill:#7E57C2"></path><path d="M124,187.05l-14.16,8.18c-.52.29-.93,0-.93-.71h0a2.23,2.23,0,0,1,.93-1.79L124,184.55c.52-.29.94,0,.94.71h0A2.24,2.24,0,0,1,124,187.05Z" style="fill:#e0e0e0"></path><ellipse cx="139.75" cy="160.77" rx="11.83" ry="6.7" transform="translate(-62.9 226.42) rotate(-66.95)" style="fill:#fff"></ellipse><path d="M146.16,156.17s0-.06,0-.08h0c-.47-2.61-2.38-3.05-3.74-2.24a2,2,0,0,0-1.19,1.88,4.34,4.34,0,0,0-.63-1.35,2,2,0,0,0-1.3-.75,1.07,1.07,0,0,0-1,.61c-.32.54-.32.81-.48.88s-.49.27-.49.27a1.72,1.72,0,0,0,.12,1,3.76,3.76,0,0,1,.15-.77c.08-.13.21.2.37.08s.24-.71.5-.76.54.36.44,1a3.85,3.85,0,0,1-.6,1.37c-.06-.35-.1-.95-1.34-.2s-3.22,3.53-3.61,6.66h0s0,.07,0,.1a11.85,11.85,0,0,0-.06,1.19c.05,3.25,1.68,3.78,2.52,3.22a2,2,0,0,0,2.74-.55h0a1.83,1.83,0,0,0,1.33-.32,4.31,4.31,0,0,0,1.32-1.27h0c.68,0,1.86-1.05,2.71-2.75.84-.45,2.43-2.92,2.38-6.16A7.31,7.31,0,0,0,146.16,156.17Z" style="fill:#7E57C2"></path><path d="M141.69,161.22s-.32,1.2-.53,1.69l-.69-.83s-.53,1.28-.83,1.89a4.39,4.39,0,0,1-.54-.94l-.92,1.59s-.19-.86-.26-1.31a9.47,9.47,0,0,1-1.89,1.32,1.38,1.38,0,0,0,1.37-.25l.52,1.48L139,164.2l.57,1.1.89-1.9,1.08.52.34-1.81s.61,0,1.24-.94A1.43,1.43,0,0,1,141.69,161.22Zm-2.92.53c-.84.06-2.18-1.66-2.18-1.66a9.33,9.33,0,0,0-.1,3C137.36,163.26,138.77,161.75,138.77,161.75Zm4.28-2.62a6.62,6.62,0,0,0-.36-2.69,22.37,22.37,0,0,1-1.9,4.34A4.13,4.13,0,0,0,143.05,159.13Z" style="fill:#263238"></path><path d="M139.75,171.3c-4.35,2.51-7.89-.17-7.89-6s3.54-12.57,7.89-15.09,7.9.17,7.9,6S144.11,168.79,139.75,171.3Zm0-20.56c-4.14,2.4-7.52,8.84-7.52,14.37s3.38,8.08,7.52,5.69,7.53-8.84,7.53-14.37S143.9,148.35,139.75,150.74Z" style="fill:#455a64"></path><path d="M139.75,172.88c-5,2.89-9.08-.19-9.08-6.87s4.08-14.46,9.08-17.35,9.09.19,9.09,6.87S144.76,170,139.75,172.88Zm0-23.39c-4.66,2.69-8.46,9.94-8.46,16.17s3.8,9.09,8.46,6.4,8.47-9.95,8.47-16.18S144.42,146.79,139.75,149.49Z" style="fill:#7E57C2"></path><path d="M146.83,173.86,132.67,182c-.52.3-.93,0-.93-.71h0a2.23,2.23,0,0,1,.93-1.79l14.16-8.17c.52-.3.94,0,.94.7h0A2.24,2.24,0,0,1,146.83,173.86Z" style="fill:#e0e0e0"></path><ellipse cx="162.59" cy="147.58" rx="11.83" ry="6.7" transform="translate(-36.87 239.41) rotate(-66.95)" style="fill:#fff"></ellipse><path d="M167.47,148.12c.11-1.1.52-1.61.76-4.05.22-2.21-.68-6.21-4.87-4.22a12.16,12.16,0,0,0-6.81,9.76c-.27,3.59,1.41,4.26,2.7,4.29s1.63,0,1.7,1.08.67.86,1.07.35.15-1.81.87-2.47c.55-.5.63,1.38,1.44.93s.55-2.54,1-3.07.94,1.09,1.62.39S167.37,149.16,167.47,148.12Z" style="fill:#37474f"></path><path d="M164.57,146.31c.54-.39,1.53,1.65,1,2.26s-.82-.32-1.14.1-1,2-1.42,2S163.71,146.93,164.57,146.31Z" style="fill:#7E57C2"></path><path d="M161.76,145.11c.82.1,1,2.16.11,3.67s-2.52,2.39-2.7.95S160.59,145,161.76,145.11Z" style="fill:#7E57C2"></path><path d="M167,142a2.19,2.19,0,0,1,.09,2.95c-.94,1-1.95.19-2-.94S166,141,167,142Z" style="fill:#7E57C2"></path><path d="M162.59,158.11c-4.35,2.52-7.89-.16-7.89-6s3.54-12.57,7.89-15.08,7.9.16,7.9,6S167,155.6,162.59,158.11Zm0-20.56c-4.14,2.4-7.52,8.85-7.52,14.38s3.38,8.08,7.52,5.68,7.52-8.84,7.52-14.37S166.74,135.16,162.59,137.55Z" style="fill:#455a64"></path><path d="M162.59,159.69c-5,2.9-9.08-.18-9.08-6.86s4.08-14.47,9.08-17.36,9.09.19,9.09,6.87S167.6,156.8,162.59,159.69Zm0-23.39c-4.66,2.69-8.46,9.95-8.46,16.17s3.8,9.09,8.46,6.4,8.47-10,8.47-16.17S167.26,133.6,162.59,136.3Z" style="fill:#7E57C2"></path><path d="M169.68,160.68l-14.17,8.17c-.52.3-.93,0-.93-.7h0a2.23,2.23,0,0,1,.93-1.79l14.17-8.18c.51-.3.93,0,.93.71h0A2.26,2.26,0,0,1,169.68,160.68Z" style="fill:#e0e0e0"></path><ellipse cx="185.43" cy="134.4" rx="11.83" ry="6.7" transform="translate(-10.84 252.4) rotate(-66.95)" style="fill:#fff"></ellipse><path d="M189.78,130.61c-1.3-1.32-1.82-2-2.57-2.72s-2.39-.47-3.72.91a7,7,0,0,0-2,3.31c-.2.82-1.71,2.45-2.23,3.6a2.61,2.61,0,0,0-.35,1.67l.41-.52a2.78,2.78,0,0,0,1.21-.75c.69-.64,2.41-2.1,2.41-2.1.53.08,1.15-.14.7,1.53s-.57,4.63.1,6.12a6.62,6.62,0,0,0,2.25,2.63c3-2,5.49-6.06,6.55-10.22A22.23,22.23,0,0,0,189.78,130.61Z" style="fill:#455a64"></path><path d="M185.43,144.93c-4.35,2.51-7.89-.17-7.89-6s3.54-12.58,7.89-15.09,7.9.16,7.9,6S189.79,142.41,185.43,144.93Zm0-20.56c-4.14,2.39-7.52,8.84-7.52,14.37s3.38,8.08,7.52,5.69,7.53-8.85,7.53-14.38S189.58,122,185.43,124.37Z" style="fill:#455a64"></path><path d="M185.43,146.51c-5,2.89-9.08-.19-9.08-6.87s4.08-14.46,9.08-17.35,9.09.19,9.09,6.86S190.44,143.62,185.43,146.51Zm0-23.4c-4.66,2.7-8.46,10-8.46,16.17s3.8,9.1,8.46,6.4,8.47-10,8.47-16.17S190.1,120.42,185.43,123.11Z" style="fill:#7E57C2"></path><path d="M192.52,147.49l-14.17,8.18c-.51.29-.93,0-.93-.71h0a2.26,2.26,0,0,1,.93-1.79L192.52,145c.51-.29.93,0,.93.71h0A2.26,2.26,0,0,1,192.52,147.49Z" style="fill:#e0e0e0"></path><path d="M193.45,154.69,85.3,217.13c-.23.13-.41,0-.41-.32a1,1,0,0,1,.41-.78l108.15-62.45c.23-.13.41,0,.41.32A1,1,0,0,1,193.45,154.69Z" style="fill:#e0e0e0"></path><path d="M97,425.25l-3.09-2.13c-.11-.07-.28,0-.39.22L90.46,429a.75.75,0,0,0-.08.31v4.46c0,.21.12.31.28.22l2.25-1.31v-2.49a2,2,0,0,1,.83-1.58c.46-.27.83,0,.83.62v2.5l2.26-1.31a.67.67,0,0,0,.28-.53v-4.46A.28.28,0,0,0,97,425.25Z" style="fill:#455a64"></path><path d="M119.36,412.32c0-2.22-1.36-3.25-3-2.29a7.23,7.23,0,0,0-3,5.77c0,2.22,1.35,3.25,3,2.29a5.67,5.67,0,0,0,1.85-1.94l1.23.93c.1.08.26,0,.35-.2l.09-.17c.1-.18.1-.39,0-.46l-1.23-.93A7.23,7.23,0,0,0,119.36,412.32Zm-3,4.94c-1.33.77-2.4-.05-2.4-1.81a5.73,5.73,0,0,1,2.4-4.59c1.32-.77,2.4.05,2.4,1.81A5.76,5.76,0,0,1,116.34,417.26Z" style="fill:#455a64"></path><path d="M139.21,403.66l1.56-2c.12-.15.12-.38,0-.4l-1.56-.21c-.11,0-.25.17-.25.34v2.22C139,403.77,139.1,403.8,139.21,403.66Zm2.19-8.1-3.3,1.91a3.94,3.94,0,0,0-1.64,3.13v4.69c0,1.2.74,1.76,1.64,1.24l3.3-1.91a3.92,3.92,0,0,0,1.65-3.13V396.8C143.05,395.6,142.31,395,141.4,395.56ZM140,397.17l.59,1.1-1.32.77-.59-1.1Zm-3,3.08a2.49,2.49,0,0,1,.94-1.89l.58,1.08-1.52.88Zm5.35,1.59a2.45,2.45,0,0,1-1,2l-3.3,1.9c-.56.33-1,0-1-.77v-3.78l5.35-3.09Zm0-4.6-1.09.62-.59-1.09.65-.38c.57-.33,1,0,1,.77Z" style="fill:#455a64"></path><path d="M163.86,385.49a.74.74,0,0,0-.31.59,2.1,2.1,0,0,1-.86,1.65c-.47.27-.86,0-.86-.65,0-.23-.14-.34-.31-.24a.76.76,0,0,0-.31.59c0,1.09.67,1.59,1.48,1.12a3.53,3.53,0,0,0,1.48-2.82C164.17,385.5,164,385.39,163.86,385.49Zm1.66-1.14c0-.44-.28-.63-.62-.44l-.73.42v-.19c0-1.09-.66-1.59-1.48-1.12a3.56,3.56,0,0,0-1.48,2.82v.2l-.73.42a1.48,1.48,0,0,0-.62,1.15l-.12,4.05a1.68,1.68,0,0,0,.48,1.4,1,1,0,0,0,1.23,0l2.48-1.43a3.3,3.3,0,0,0,1.23-1.42,4.07,4.07,0,0,0,.48-1.95Zm-3.69,1.14a2.09,2.09,0,0,1,.86-1.65c.47-.27.86,0,.86.65v.2l-1.72,1Zm2.89,4.4a2.15,2.15,0,0,1-.79.9l-2.48,1.43a.66.66,0,0,1-.79,0,1.13,1.13,0,0,1-.3-.9l.12-4,4.42-2.55.12,3.9A2.64,2.64,0,0,1,164.72,389.89Z" style="fill:#455a64"></path><path d="M185.73,370c-2,1.14-3.58,4.21-3.58,6.84a3.07,3.07,0,0,0,1.37,2.95v0l.13.05a2.44,2.44,0,0,0,2.08-.31,6.48,6.48,0,0,0,2.09-2.11h0l.13-.19v0a9,9,0,0,0,1.36-4.51C189.31,370.05,187.7,368.83,185.73,370Zm1.43,7.4c0,.05-.09.11-.14.17s-.2.24-.31.35l-.09.09a4.48,4.48,0,0,1-.4.36l0,0a3.37,3.37,0,0,1-.9.53h0a2,2,0,0,1-.38.11h-.11a1.51,1.51,0,0,1-.3,0h-.14l-.17,0a2.16,2.16,0,0,1,.91-1.71l1.36-.79c.5-.29.9,0,.91.65Zm.7-1.16a.9.9,0,0,0-1.45-.56l-1.36.79a3.53,3.53,0,0,0-1.45,2.24,2.82,2.82,0,0,1-.83-2.23,7.1,7.1,0,0,1,3-5.65c1.63-.94,3,.06,3,2.24A7.24,7.24,0,0,1,187.86,376.21Zm-2.13-4.53a3.79,3.79,0,0,0-1.57,3c0,1.16.71,1.69,1.57,1.19a3.76,3.76,0,0,0,1.57-3C187.3,371.71,186.6,371.18,185.73,371.68Zm0,3.36c-.52.3-.95,0-.95-.72a2.27,2.27,0,0,1,.95-1.81c.53-.3,1,0,1,.72A2.25,2.25,0,0,1,185.73,375Z" style="fill:#455a64"></path><path d="M90.8,390.14a.2.2,0,0,1-.22,0l-2.66-2a1.83,1.83,0,0,1-.64-1.58,4.81,4.81,0,0,1,2-3.83,1.21,1.21,0,0,1,1.43,0l.09.08.09-.18A4,4,0,0,1,92.33,381c1.1-.64,2,0,2,1.52a5,5,0,0,1-.6,2.25L91,389.9A.58.58,0,0,1,90.8,390.14Zm-1.52-6.61a3.34,3.34,0,0,0-1.38,2.66,1.26,1.26,0,0,0,.4,1.06l.06,0,2.44,1.85,2.45-4.66,0-.12a3.31,3.31,0,0,0,.41-1.53c0-1-.62-1.5-1.38-1.06a2.8,2.8,0,0,0-1,1.13,3.65,3.65,0,0,0-.24.61.71.71,0,0,1-.28.4.19.19,0,0,1-.28-.06.91.91,0,0,0-.26-.34A.86.86,0,0,0,89.28,383.53Z" style="fill:#455a64"></path><path d="M105.8,381.24l-1.1.33a6.58,6.58,0,0,1-.85.93c-1.8,1.55-3.57,1.06-4-1.11a8.1,8.1,0,0,1,2.54-6.75c1.8-1.56,3.58-1.06,4,1.11a7,7,0,0,1-.46,3.58l.22,1.2a.75.75,0,0,1-.08.43.83.83,0,0,1-.16.2A.42.42,0,0,1,105.8,381.24Zm-.45-1.87a5.85,5.85,0,0,0,.44-3.1c-.32-1.76-1.76-2.17-3.22-.9a6.61,6.61,0,0,0-2.08,5.49c.32,1.77,1.77,2.17,3.23.91a5.22,5.22,0,0,0,.79-.9.35.35,0,0,1,.29-.17l.65-.2-.12-.68A.55.55,0,0,1,105.35,379.37Z" style="fill:#455a64"></path><path d="M118.52,366.25v0h0a.19.19,0,0,0-.1-.08h0a.2.2,0,0,0-.1,0h0l-6,3.31h0a.73.73,0,0,0-.28.42.39.39,0,0,0,.07.41l2.18,1.65.69,3.5c0,.15.13.21.26.16l0,0a.64.64,0,0,0,.27-.36l3-8.6v0a.45.45,0,0,0,0-.16.09.09,0,0,0,0-.05A.24.24,0,0,0,118.52,366.25ZM113,369.89l4.09-2.26-2.56,3.43Zm2.32,4.14-.48-2.43,2.52-3.38Z" style="fill:#455a64"></path><path d="M191.69,323.35l-4.87,2.81a1,1,0,0,0-.41.79v7.32c0,.22.1.37.25.37a.33.33,0,0,0,.16-.05.76.76,0,0,0,.29-.32l2.15-3.94,2.15,1.46c.12.08.29,0,.44-.15a1.08,1.08,0,0,0,.25-.65v-7.33C192.1,323.36,191.92,323.22,191.69,323.35Zm-.41,6.84L189.54,329a.24.24,0,0,0-.28,0,.8.8,0,0,0-.29.31l-1.73,3.19V327l4-2.33Z" style="fill:#455a64"></path><path d="M164.63,400.69l-49.76,28.73c-.38.22-.68,0-.68-.52h0a1.63,1.63,0,0,1,.68-1.31l49.76-28.73c.38-.22.69,0,.69.52h0A1.65,1.65,0,0,1,164.63,400.69Z" style="fill:#e0e0e0"></path><path d="M102.54,401.78l-13.43,7.75c-.67.39-1.21,0-1.21-.91h0a2.88,2.88,0,0,1,1.21-2.31l13.43-7.76c.66-.38,1.21,0,1.21.92h0A2.92,2.92,0,0,1,102.54,401.78Z" style="fill:#455a64"></path><path d="M187.7,352l-38,21.94c-.55.32-1,0-1-.74h0a2.35,2.35,0,0,1,1-1.89l38-21.95c.55-.31,1,0,1,.75h0A2.36,2.36,0,0,1,187.7,352Z" style="fill:#e0e0e0"></path><path d="M87.73,399.43a.09.09,0,0,1,0-.09.28.28,0,0,1,0-.12l.83-1.36.07-.09a.16.16,0,0,1,.07-.07l.3-.17a.06.06,0,0,1,.07,0,.11.11,0,0,1,0,.08v3.32a.23.23,0,0,1,0,.11.22.22,0,0,1-.07.09l-.31.18h-.08a.1.1,0,0,1,0-.08v-2.54l-.54.89a.17.17,0,0,1-.08.07.06.06,0,0,1-.07,0Z" style="fill:#455a64"></path><path d="M89.77,397.23a.23.23,0,0,1,0-.11.22.22,0,0,1,.07-.09l1.45-.83s.05,0,.07,0,0,0,0,.08v.36a.27.27,0,0,1,0,.12.27.27,0,0,1-.07.08l-1.08.62,0,.68a.84.84,0,0,1,.2-.18l.17-.11a1.24,1.24,0,0,1,.4-.15.44.44,0,0,1,.53.29,1.19,1.19,0,0,1,.08.46,2.31,2.31,0,0,1-.08.61,2,2,0,0,1-.22.51A2.15,2.15,0,0,1,91,400a2.19,2.19,0,0,1-.39.29,1.23,1.23,0,0,1-.46.18.45.45,0,0,1-.31,0,.36.36,0,0,1-.19-.21.89.89,0,0,1-.07-.34.18.18,0,0,1,0-.12.19.19,0,0,1,.07-.08l.31-.18a.06.06,0,0,1,.07,0,.08.08,0,0,1,0,.07.27.27,0,0,0,.08.15.16.16,0,0,0,.11.05.27.27,0,0,0,.15,0,.85.85,0,0,0,.17-.08.93.93,0,0,0,.35-.36,1,1,0,0,0,.14-.52.31.31,0,0,0-.14-.3.35.35,0,0,0-.35,0,1.06,1.06,0,0,0-.18.13.4.4,0,0,0-.11.12l-.08.1a.22.22,0,0,1-.09.07l-.35.2a.08.08,0,0,1-.08,0,.11.11,0,0,1,0-.08Z" style="fill:#455a64"></path><path d="M92,398.83a.55.55,0,0,1,0-.17.3.3,0,0,1,.12-.13l.33-.19a0,0,0,0,1,.06,0,.06.06,0,0,1,0,.06s0,0,0,0l-.25,1s0,.08,0,.14a.34.34,0,0,1-.12.12l-.17.1h-.06s0,0,0-.07h0Z" style="fill:#455a64"></path><path d="M94.18,396.13a1.36,1.36,0,0,0,.15-.34,1.29,1.29,0,0,0,0-.25.39.39,0,0,0-.1-.31c-.06-.06-.17,0-.32,0a.79.79,0,0,0-.31.32,1.81,1.81,0,0,0-.14.43.25.25,0,0,1,0,.13l-.07.07-.31.18a0,0,0,0,1-.07,0s0,0,0-.08a2.21,2.21,0,0,1,.09-.49,2.76,2.76,0,0,1,.2-.47,2.17,2.17,0,0,1,.31-.42,1.53,1.53,0,0,1,.37-.31.78.78,0,0,1,.42-.13.41.41,0,0,1,.29.1.62.62,0,0,1,.17.27,1.1,1.1,0,0,1,.06.37c0,.09,0,.17,0,.25a1.38,1.38,0,0,1-.06.26,2.45,2.45,0,0,1-.12.31,3.36,3.36,0,0,1-.22.4l-.71,1.28,1.07-.62s0,0,.07,0,0,0,0,.08v.36a.19.19,0,0,1,0,.12.19.19,0,0,1-.07.08l-1.8,1H93a.1.1,0,0,1,0-.08v-.31a.39.39,0,0,1,0-.18l.06-.12Z" style="fill:#455a64"></path><path d="M97.16,392.82h.08a.1.1,0,0,1,0,.08v.37a.35.35,0,0,1,0,.12l-.06.11-.56,1.12a.8.8,0,0,1,.31-.07.36.36,0,0,1,.24.08.42.42,0,0,1,.16.22,1.27,1.27,0,0,1,0,.37,1.57,1.57,0,0,1-.08.52,1.82,1.82,0,0,1-.22.47,1.86,1.86,0,0,1-.33.41,1.57,1.57,0,0,1-.41.32,1.32,1.32,0,0,1-.47.19.59.59,0,0,1-.33,0,.41.41,0,0,1-.2-.19.65.65,0,0,1-.08-.28.27.27,0,0,1,0-.12s0-.07.07-.08l.31-.18h.06s0,0,0,.06a.28.28,0,0,0,.06.08.14.14,0,0,0,.11,0,.28.28,0,0,0,.15,0,1.22,1.22,0,0,0,.24-.11,1.16,1.16,0,0,0,.38-.35.76.76,0,0,0,.14-.43c0-.16,0-.24-.14-.25a.68.68,0,0,0-.38.12l-.32.18s0,0-.07,0,0,0,0-.08v-.36a.27.27,0,0,1,0-.12.33.33,0,0,1,0-.12l.54-1.07-1.06.62H95.4a.1.1,0,0,1,0-.08V394a.26.26,0,0,1,0-.11s0-.07.08-.08Z" style="fill:#455a64"></path><path d="M99.85,392.61v.92a5.6,5.6,0,0,1-.07.59,2.45,2.45,0,0,1-.18.54,2.11,2.11,0,0,1-.32.48,1.82,1.82,0,0,1-.47.38,1.12,1.12,0,0,1-.48.16.37.37,0,0,1-.31-.11.69.69,0,0,1-.18-.33,2.52,2.52,0,0,1-.07-.52v-.89a3.81,3.81,0,0,1,.07-.59,2.53,2.53,0,0,1,.18-.55,1.9,1.9,0,0,1,.79-.87,1.17,1.17,0,0,1,.47-.17.43.43,0,0,1,.32.11.73.73,0,0,1,.18.34A3.49,3.49,0,0,1,99.85,392.61Zm-1.56,1.79a.86.86,0,0,0,.14.49c.07.09.2.09.38,0a.82.82,0,0,0,.38-.42,2,2,0,0,0,.14-.65v-.86a.93.93,0,0,0-.14-.5c-.07-.09-.2-.08-.38,0a.88.88,0,0,0-.38.43,1.89,1.89,0,0,0-.14.64v.87Z" style="fill:#455a64"></path><path d="M103,392.39a.06.06,0,0,1,.07,0,.11.11,0,0,1,0,.08v.37a.23.23,0,0,1,0,.11.22.22,0,0,1-.07.09l-1.69,1a0,0,0,0,1-.07,0,.1.1,0,0,1,0-.08v-3.31a.27.27,0,0,1,0-.12.19.19,0,0,1,.07-.08l.32-.18a0,0,0,0,1,.07,0s0,0,0,.08v2.81Z" style="fill:#455a64"></path><path d="M103.88,388.89s.06,0,.08,0a.1.1,0,0,1,0,.08v.4a.27.27,0,0,1,0,.12.2.2,0,0,1-.08.08l-.33.19s0,0-.07,0,0,0,0-.08v-.4a.23.23,0,0,1,0-.11.22.22,0,0,1,.07-.09Zm.09,3.46a.26.26,0,0,1,0,.11.15.15,0,0,1-.08.08l-.29.17a.06.06,0,0,1-.07,0,.11.11,0,0,1,0-.08v-2.4a.26.26,0,0,1,0-.11s0-.07.07-.08l.29-.17a.06.06,0,0,1,.08,0s0,0,0,.08Z" style="fill:#455a64"></path><path d="M105,390.87v.88a.27.27,0,0,1,0,.12.29.29,0,0,1-.07.08l-.3.17h-.07a.1.1,0,0,1,0-.08v-3.36a.27.27,0,0,1,0-.12.19.19,0,0,1,.07-.08l.3-.17a0,0,0,0,1,.07,0s0,0,0,.08V390l.64-1.06.06-.09a.38.38,0,0,1,.09-.09l.39-.22s0,0,.07,0,0,0,0,.07a.09.09,0,0,1,0,.05s0,0,0,.07l-.89,1.49,1,.69,0,0a.06.06,0,0,1,0,0,.23.23,0,0,1,0,.11l-.06.07-.38.21a.14.14,0,0,1-.1,0l-.06,0Z" style="fill:#455a64"></path><path d="M106.43,389.73a2.36,2.36,0,0,1,.07-.58,2.53,2.53,0,0,1,.18-.55,3.15,3.15,0,0,1,.3-.47,1.49,1.49,0,0,1,.39-.33.86.86,0,0,1,.39-.12.44.44,0,0,1,.3.11.63.63,0,0,1,.19.31,1.27,1.27,0,0,1,.07.46v.23a.23.23,0,0,1,0,.11.35.35,0,0,1-.07.09l-1.29.74a.3.3,0,0,0,0,.18.17.17,0,0,0,.1.1.21.21,0,0,0,.14,0,.37.37,0,0,0,.16-.07.64.64,0,0,0,.2-.14.83.83,0,0,0,.13-.16l.07-.1.07-.06.31-.17a.08.08,0,0,1,.08,0,.12.12,0,0,1,0,.09s0,.12-.06.21a2,2,0,0,1-.17.32,2.2,2.2,0,0,1-.28.34,1.4,1.4,0,0,1-.38.3.82.82,0,0,1-.39.13.44.44,0,0,1-.3-.12.65.65,0,0,1-.18-.33A1.6,1.6,0,0,1,106.43,389.73Zm.94-1.31a.9.9,0,0,0-.19.15,1.27,1.27,0,0,0-.13.19.84.84,0,0,0-.08.2c0,.07,0,.13,0,.18l.87-.5a.32.32,0,0,0,0-.14.24.24,0,0,0-.07-.12.21.21,0,0,0-.12,0A.46.46,0,0,0,107.37,388.42Z" style="fill:#455a64"></path><path d="M109.83,388.34a.1.1,0,0,0,0-.08.13.13,0,0,0-.09,0,.74.74,0,0,0-.18,0l-.29.08a.75.75,0,0,1-.28,0,.37.37,0,0,1-.18-.08.38.38,0,0,1-.09-.18,1.12,1.12,0,0,1,0-.27,1.05,1.05,0,0,1,.06-.33,1.38,1.38,0,0,1,.15-.36,2.39,2.39,0,0,1,.25-.33,1.64,1.64,0,0,1,.33-.26,1.29,1.29,0,0,1,.34-.14.52.52,0,0,1,.25,0,.34.34,0,0,1,.16.12.38.38,0,0,1,.07.21.23.23,0,0,1,0,.11.35.35,0,0,1-.07.09l-.3.17s-.07,0-.09,0l-.06,0h-.09l-.18.07a1.06,1.06,0,0,0-.2.17.29.29,0,0,0-.09.21.2.2,0,0,0,0,.09l.08,0,.17,0,.27-.08c.23-.07.39-.06.49,0a.55.55,0,0,1,.14.43,1.05,1.05,0,0,1-.06.33,1.47,1.47,0,0,1-.17.36,1.68,1.68,0,0,1-.27.34,1.45,1.45,0,0,1-.36.28,1,1,0,0,1-.36.14.55.55,0,0,1-.26,0,.39.39,0,0,1-.17-.14.65.65,0,0,1-.06-.21.27.27,0,0,1,0-.12.15.15,0,0,1,.08-.08l.29-.17a.08.08,0,0,1,.09,0l.07.05.1,0a.45.45,0,0,0,.19-.08l.12-.08.12-.1a.44.44,0,0,0,.08-.11A.17.17,0,0,0,109.83,388.34Z" style="fill:#455a64"></path><path d="M88.91,418.21l.65-2.82a.3.3,0,0,1,0-.11.24.24,0,0,1,.08-.09L90,415a0,0,0,0,1,.07,0s0,0,0,.08v0l-.86,3.73a.5.5,0,0,1,0,.16.28.28,0,0,1-.09.1l-.31.17a.08.08,0,0,1-.1,0s0-.05,0-.1l-.86-2.72v-.05a.27.27,0,0,1,0-.12.29.29,0,0,1,.07-.08l.3-.17s.06,0,.08,0a.07.07,0,0,1,0,.06Z" style="fill:#e0e0e0"></path><path d="M90.87,414.45h.07a.1.1,0,0,1,0,.08v.4a.27.27,0,0,1,0,.12.19.19,0,0,1-.07.08l-.33.19a.06.06,0,0,1-.08,0s0,0,0-.08v-.4a.26.26,0,0,1,0-.11.36.36,0,0,1,.08-.09Zm.08,3.46a.23.23,0,0,1,0,.11.22.22,0,0,1-.07.09l-.29.16a.08.08,0,0,1-.08,0,.11.11,0,0,1,0-.08v-2.39a.27.27,0,0,1,0-.12s0-.07.08-.08l.29-.17s.05,0,.07,0,0,0,0,.08Z" style="fill:#e0e0e0"></path><path d="M91.38,416.46a3,3,0,0,1,.07-.58,2.47,2.47,0,0,1,.19-.54,1.89,1.89,0,0,1,.3-.47,1.41,1.41,0,0,1,.39-.34.79.79,0,0,1,.39-.12.55.55,0,0,1,.3.11.78.78,0,0,1,.19.31,1.6,1.6,0,0,1,.06.46v.23a.27.27,0,0,1,0,.12.19.19,0,0,1-.07.08l-1.29.74a.49.49,0,0,0,0,.19.21.21,0,0,0,.24.1.58.58,0,0,0,.17-.06,1.15,1.15,0,0,0,.2-.15.61.61,0,0,0,.12-.16l.07-.09a.24.24,0,0,1,.08-.06l.3-.18a.06.06,0,0,1,.08,0s0,0,0,.08a.66.66,0,0,1-.06.22,2,2,0,0,1-.17.32,3.63,3.63,0,0,1-.27.34,2.28,2.28,0,0,1-.38.3.86.86,0,0,1-.39.12.44.44,0,0,1-.3-.11.76.76,0,0,1-.19-.33A2,2,0,0,1,91.38,416.46Zm1-1.31a.58.58,0,0,0-.19.15,1.15,1.15,0,0,0-.14.19,1.8,1.8,0,0,0-.08.21,1.16,1.16,0,0,0,0,.18l.87-.5a.77.77,0,0,0,0-.15.23.23,0,0,0-.07-.11.2.2,0,0,0-.13,0A.4.4,0,0,0,92.33,415.15Z" style="fill:#e0e0e0"></path><path d="M95.59,414.29l.35-1.66a.23.23,0,0,1,0-.11.18.18,0,0,1,.07-.08l.3-.17h.07a.1.1,0,0,1,0,.08v0l-.59,2.7a.26.26,0,0,1,0,.11.2.2,0,0,1-.08.08l-.29.17s-.06,0-.07,0a.21.21,0,0,1,0-.06L95,414.23l-.38,1.59,0,.11a.2.2,0,0,1-.08.08l-.29.17s-.06,0-.08,0a.15.15,0,0,1,0-.07l-.58-2s0,0,0,0a.23.23,0,0,1,0-.11.24.24,0,0,1,.08-.09l.29-.17s.06,0,.07,0a.16.16,0,0,1,0,.07l.34,1.26.37-1.68,0-.1s0-.07.07-.08l.29-.17s0,0,.07,0a.09.09,0,0,1,0,.06Z" style="fill:#e0e0e0"></path><path d="M97.62,412.19a1.26,1.26,0,0,1,.07-.28,1.91,1.91,0,0,1,.16-.32,1.78,1.78,0,0,1,.59-.59,1,1,0,0,1,.36-.13.41.41,0,0,1,.27,0,.44.44,0,0,1,.17.24,1,1,0,0,1,.07.43v1.51a.26.26,0,0,1,0,.11s0,.07-.08.08l-.29.17s0,0-.07,0,0,0,0-.08v-.17a1.78,1.78,0,0,1-.24.39,1.35,1.35,0,0,1-.38.33.69.69,0,0,1-.3.11.31.31,0,0,1-.22,0,.35.35,0,0,1-.14-.17.85.85,0,0,1,0-.29,1.32,1.32,0,0,1,.18-.67,2.42,2.42,0,0,1,.51-.56l.63-.51c0-.14,0-.22-.11-.23a.35.35,0,0,0-.26.06l-.15.12c0,.05-.07.1-.1.16a.35.35,0,0,1-.06.09.18.18,0,0,1-.07.05l-.35.21a.06.06,0,0,1-.07,0S97.62,412.22,97.62,412.19Zm.64,1.07a1.08,1.08,0,0,0,.24-.18,2,2,0,0,0,.17-.23,1.09,1.09,0,0,0,.1-.25.93.93,0,0,0,0-.23v-.05l-.53.43a.92.92,0,0,0-.22.23.41.41,0,0,0-.07.23c0,.07,0,.11.08.11A.41.41,0,0,0,98.26,413.26Z" style="fill:#e0e0e0"></path><path d="M100.32,412.5a.27.27,0,0,1,0,.12.2.2,0,0,1-.08.08l-.29.17h-.07a.1.1,0,0,1,0-.08v-3.36a.27.27,0,0,1,0-.12s0-.07.07-.08l.29-.17a.06.06,0,0,1,.08,0s0,0,0,.08Z" style="fill:#e0e0e0"></path><path d="M101.35,411.91a.26.26,0,0,1,0,.11.15.15,0,0,1-.08.08l-.29.17a.06.06,0,0,1-.07,0,.12.12,0,0,1,0-.09v-3.36a.2.2,0,0,1,0-.11.22.22,0,0,1,.07-.09l.29-.17h.08a.1.1,0,0,1,0,.08Z" style="fill:#e0e0e0"></path><path d="M103.91,408.56a1.07,1.07,0,0,0,.15-.34,1.38,1.38,0,0,0,0-.26.38.38,0,0,0-.1-.3c-.06-.06-.17-.05-.31,0a.68.68,0,0,0-.31.32,1.21,1.21,0,0,0-.14.43.5.5,0,0,1,0,.13.15.15,0,0,1-.07.07l-.3.18s-.06,0-.08,0,0,0,0-.08a2.21,2.21,0,0,1,.09-.49,2.5,2.5,0,0,1,.21-.48,1.73,1.73,0,0,1,.3-.41,1.53,1.53,0,0,1,.37-.31.9.9,0,0,1,.42-.14.45.45,0,0,1,.29.11.54.54,0,0,1,.18.27,1.38,1.38,0,0,1,0,.37,2.09,2.09,0,0,1,0,.25c0,.08,0,.17,0,.26a1.89,1.89,0,0,1-.13.31,3.15,3.15,0,0,1-.21.4l-.72,1.27,1.07-.61a.06.06,0,0,1,.08,0,.08.08,0,0,1,0,.07V410a.2.2,0,0,1,0,.11.24.24,0,0,1-.08.09l-1.79,1h-.08a.11.11,0,0,1,0-.08v-.32a.59.59,0,0,1,0-.17l.07-.13Z" style="fill:#e0e0e0"></path><path d="M107.13,406.45a1.55,1.55,0,0,1,0,.22v.48a1.55,1.55,0,0,1,0,.22,3.93,3.93,0,0,1-.06.59,2.45,2.45,0,0,1-.18.54,1.86,1.86,0,0,1-.32.47,1.48,1.48,0,0,1-.47.38,1,1,0,0,1-.48.17.37.37,0,0,1-.31-.11.73.73,0,0,1-.18-.34,2.42,2.42,0,0,1-.07-.51v-.89a3.81,3.81,0,0,1,.07-.59,2.37,2.37,0,0,1,.18-.55,1.93,1.93,0,0,1,.31-.49,2.06,2.06,0,0,1,.48-.38,1,1,0,0,1,.47-.17.43.43,0,0,1,.32.11.73.73,0,0,1,.18.34A2.55,2.55,0,0,1,107.13,406.45Zm-1.55,1.78a.9.9,0,0,0,.14.5c.07.09.2.08.38,0a.82.82,0,0,0,.38-.42,2,2,0,0,0,.14-.65v-.86a.9.9,0,0,0-.14-.5c-.07-.09-.2-.08-.38,0a.86.86,0,0,0-.38.42,2,2,0,0,0-.14.65v.86Z" style="fill:#e0e0e0"></path><path d="M109.4,403.8h.08a.1.1,0,0,1,0,.08v.37a.35.35,0,0,1,0,.12l-.06.11-.56,1.12a.81.81,0,0,1,.32-.07.48.48,0,0,1,.24.07.57.57,0,0,1,.15.23,1,1,0,0,1,.05.36,1.77,1.77,0,0,1-.07.52,2.62,2.62,0,0,1-.22.48,2.69,2.69,0,0,1-.33.41,2.12,2.12,0,0,1-.42.32,1.44,1.44,0,0,1-.47.19.59.59,0,0,1-.33,0,.41.41,0,0,1-.2-.19.65.65,0,0,1-.08-.28.27.27,0,0,1,0-.12.19.19,0,0,1,.07-.08l.31-.18H108a.1.1,0,0,1,0,.06.28.28,0,0,0,.06.08.18.18,0,0,0,.11,0,.33.33,0,0,0,.16,0l.23-.11a1.16,1.16,0,0,0,.38-.35.7.7,0,0,0,.14-.44c0-.15,0-.23-.14-.24a.68.68,0,0,0-.38.12l-.32.18s-.05,0-.07,0,0,0,0-.08v-.36a.27.27,0,0,1,0-.12l0-.12.54-1.07-1.06.62h-.07a.1.1,0,0,1,0-.08V405a.26.26,0,0,1,0-.11s0-.07.07-.08Z" style="fill:#e0e0e0"></path><path d="M111.34,404.76v.36a.7.7,0,0,0,.06.24.25.25,0,0,0,.1.12.23.23,0,0,0,.14,0,.3.3,0,0,0,.16-.05.74.74,0,0,0,.16-.12.6.6,0,0,0,.11-.12.66.66,0,0,0,.08-.13l.07-.15a.61.61,0,0,1,0-.12.17.17,0,0,1,.07-.09l.3-.17a0,0,0,0,1,.07,0s0,0,0,.08a1,1,0,0,1-.06.29,1.79,1.79,0,0,1-.16.39,2.26,2.26,0,0,1-.3.41,1.43,1.43,0,0,1-.42.34,1,1,0,0,1-.38.13.48.48,0,0,1-.29-.09.59.59,0,0,1-.2-.26,1.24,1.24,0,0,1-.09-.4V405a2.4,2.4,0,0,1,.09-.5,2.92,2.92,0,0,1,.19-.49,2.47,2.47,0,0,1,.3-.42,1.44,1.44,0,0,1,.38-.32,1.19,1.19,0,0,1,.42-.15.56.56,0,0,1,.3.08.38.38,0,0,1,.16.19.56.56,0,0,1,.06.23.27.27,0,0,1,0,.12.29.29,0,0,1-.07.08l-.3.17a.06.06,0,0,1-.07,0,.1.1,0,0,1,0-.06l-.07-.07a.15.15,0,0,0-.08,0H112l-.16.08-.16.12a1.41,1.41,0,0,0-.14.18,1.45,1.45,0,0,0-.1.25A1.33,1.33,0,0,0,111.34,404.76Z" style="fill:#e0e0e0"></path><path d="M114,402a.82.82,0,0,1,.38-.13.48.48,0,0,1,.3.06.63.63,0,0,1,.2.25,1.12,1.12,0,0,1,.09.39v.52a2.21,2.21,0,0,1-.09.49,2.76,2.76,0,0,1-.2.47,1.73,1.73,0,0,1-.3.41,1.61,1.61,0,0,1-.38.31,1,1,0,0,1-.38.13.42.42,0,0,1-.3-.07.54.54,0,0,1-.2-.24,1.87,1.87,0,0,1-.09-.39v-.52a2.21,2.21,0,0,1,.09-.49,2.76,2.76,0,0,1,.2-.47,1.73,1.73,0,0,1,.3-.41A1.4,1.4,0,0,1,114,402Zm.47.88a.58.58,0,0,0-.06-.23.21.21,0,0,0-.11-.1.17.17,0,0,0-.14,0,.52.52,0,0,0-.16.06.83.83,0,0,0-.16.12.73.73,0,0,0-.14.16,1.63,1.63,0,0,0-.11.23,1.33,1.33,0,0,0-.06.3v.46a.58.58,0,0,0,.06.23.23.23,0,0,0,.11.11h.14a.56.56,0,0,0,.16-.07l.16-.11a.79.79,0,0,0,.14-.17,1,1,0,0,0,.11-.23,1.14,1.14,0,0,0,.06-.29v-.47Z" style="fill:#e0e0e0"></path><path d="M116,401.21a1.28,1.28,0,0,1,.22-.36,1,1,0,0,1,.27-.24.65.65,0,0,1,.4-.11.36.36,0,0,1,.24.18,2.1,2.1,0,0,1,.13-.26l.15-.23a1.49,1.49,0,0,1,.17-.18,1,1,0,0,1,.18-.13.64.64,0,0,1,.36-.11.35.35,0,0,1,.24.12.81.81,0,0,1,.13.31,2.94,2.94,0,0,1,0,.44V402a.27.27,0,0,1,0,.12.27.27,0,0,1-.07.08l-.29.17H118a.1.1,0,0,1,0-.08V401c0-.23,0-.37-.1-.43s-.16,0-.28,0a.71.71,0,0,0-.26.28,1.14,1.14,0,0,0-.12.54v1.38a.23.23,0,0,1,0,.11.35.35,0,0,1-.07.09l-.3.17h-.07a.11.11,0,0,1,0-.08v-1.36c0-.23,0-.37-.1-.43s-.16,0-.28,0a.69.69,0,0,0-.27.29,1.22,1.22,0,0,0-.11.55v1.36a.26.26,0,0,1,0,.11.24.24,0,0,1-.08.09l-.29.16a.06.06,0,0,1-.07,0,.11.11,0,0,1,0-.08v-2.39a.27.27,0,0,1,0-.12s0-.07.07-.08l.29-.17a.06.06,0,0,1,.08,0s0,0,0,.08Z" style="fill:#e0e0e0"></path><path d="M119.48,399.16a1.77,1.77,0,0,1,.23-.35.76.76,0,0,1,.27-.24.62.62,0,0,1,.4-.11.36.36,0,0,1,.24.18,1.23,1.23,0,0,1,.12-.26,1.88,1.88,0,0,1,.16-.23,1,1,0,0,1,.17-.18l.17-.13a.69.69,0,0,1,.37-.11.35.35,0,0,1,.23.12.68.68,0,0,1,.13.31,2,2,0,0,1,0,.44V400a.23.23,0,0,1,0,.11.24.24,0,0,1-.08.09l-.29.17h-.07a.11.11,0,0,1,0-.08v-1.36a.65.65,0,0,0-.1-.43c-.07-.05-.16,0-.28,0a.73.73,0,0,0-.27.28,1.15,1.15,0,0,0-.11.54v1.38a.3.3,0,0,1,0,.11.22.22,0,0,1-.07.09l-.29.16a.06.06,0,0,1-.07,0,.11.11,0,0,1,0-.08v-1.36a.65.65,0,0,0-.1-.43c-.07,0-.17,0-.29,0a.74.74,0,0,0-.26.29,1.09,1.09,0,0,0-.12.55v1.36a.26.26,0,0,1,0,.11s0,.07-.07.08l-.29.17a.06.06,0,0,1-.08,0s0,0,0-.08v-2.39a.26.26,0,0,1,0-.11.15.15,0,0,1,.08-.08l.29-.17s.05,0,.07,0,0,0,0,.08Z" style="fill:#e0e0e0"></path><path d="M122.42,398.55a2.78,2.78,0,0,1,.06-.58,3,3,0,0,1,.19-.55,2.22,2.22,0,0,1,.3-.47,1.49,1.49,0,0,1,.39-.33.67.67,0,0,1,.39-.12.44.44,0,0,1,.3.11.65.65,0,0,1,.19.3,1.31,1.31,0,0,1,.07.46v.23a.27.27,0,0,1,0,.12.15.15,0,0,1-.08.08l-1.28.74a.36.36,0,0,0,0,.19.18.18,0,0,0,.09.1.37.37,0,0,0,.15,0,.56.56,0,0,0,.16-.07,1.15,1.15,0,0,0,.2-.15.65.65,0,0,0,.13-.16l.07-.09.07-.06.31-.18s0,0,.07,0,0,0,0,.08a.66.66,0,0,1-.06.22,1.59,1.59,0,0,1-.16.32,2.79,2.79,0,0,1-.28.34,1.94,1.94,0,0,1-.38.3.79.79,0,0,1-.39.12.46.46,0,0,1-.3-.11.87.87,0,0,1-.19-.33A2,2,0,0,1,122.42,398.55Zm.94-1.32a.74.74,0,0,0-.19.16,1,1,0,0,0-.13.18.9.9,0,0,0-.08.21,1.16,1.16,0,0,0,0,.18l.87-.5,0-.15a.21.21,0,0,0-.07-.11.17.17,0,0,0-.13,0A.4.4,0,0,0,123.36,397.23Z" style="fill:#e0e0e0"></path><path d="M126.6,397.32a.18.18,0,0,1,0,.12s0,.07-.07.08l-.29.17s0,0-.07,0a.09.09,0,0,1,0-.08v-1.3a.68.68,0,0,0-.1-.43c-.08-.08-.18-.08-.33,0a.73.73,0,0,0-.32.37,1.25,1.25,0,0,0-.12.56v1.3a.27.27,0,0,1,0,.12l-.08.08-.29.17h-.07a.1.1,0,0,1,0-.08V396a.27.27,0,0,1,0-.12.19.19,0,0,1,.07-.08l.29-.17a.06.06,0,0,1,.08,0,.1.1,0,0,1,0,.08v.12a1.69,1.69,0,0,1,.23-.36,1.18,1.18,0,0,1,.32-.27.84.84,0,0,1,.39-.13.39.39,0,0,1,.26.11.68.68,0,0,1,.13.31,1.91,1.91,0,0,1,0,.43Z" style="fill:#e0e0e0"></path><path d="M127.77,395.83a.29.29,0,0,0,.06.21s.13,0,.24,0l.24-.13a.06.06,0,0,1,.07,0,.11.11,0,0,1,0,.08v.34a.27.27,0,0,1,0,.12.29.29,0,0,1-.07.08l-.29.17c-.24.13-.43.16-.55.08s-.2-.28-.2-.6V395l-.25.14a.08.08,0,0,1-.08,0,.11.11,0,0,1,0-.08v-.34a.27.27,0,0,1,0-.12.15.15,0,0,1,.08-.08l.25-.15v-.83a.27.27,0,0,1,0-.12.19.19,0,0,1,.07-.08l.3-.17a0,0,0,0,1,.07,0s0,0,0,.08v.83l.5-.28a.06.06,0,0,1,.07,0,.11.11,0,0,1,0,.08v.34a.27.27,0,0,1,0,.12.19.19,0,0,1-.07.08l-.5.29Z" style="fill:#e0e0e0"></path><path d="M129.87,394.81s0-.06,0-.08h-.1l-.18,0-.28.09a.74.74,0,0,1-.28,0,.3.3,0,0,1-.18-.08.31.31,0,0,1-.09-.18,1,1,0,0,1,0-.26,1.4,1.4,0,0,1,0-.34,1.58,1.58,0,0,1,.16-.35,1.59,1.59,0,0,1,.25-.33,1.22,1.22,0,0,1,.33-.27,1.29,1.29,0,0,1,.34-.14.51.51,0,0,1,.25,0,.28.28,0,0,1,.16.12.4.4,0,0,1,.07.2.27.27,0,0,1,0,.12.15.15,0,0,1-.08.08l-.29.17s-.07,0-.09,0l-.06,0a.16.16,0,0,0-.1,0,.39.39,0,0,0-.17.07.78.78,0,0,0-.2.16.33.33,0,0,0-.09.22.19.19,0,0,0,0,.08s0,0,.08,0l.17,0,.27-.08q.34-.1.48,0a.53.53,0,0,1,.15.43,1.11,1.11,0,0,1-.06.34,1.87,1.87,0,0,1-.17.35,1.44,1.44,0,0,1-.27.34,1.93,1.93,0,0,1-.36.28.86.86,0,0,1-.36.14.45.45,0,0,1-.26,0,.33.33,0,0,1-.17-.14.37.37,0,0,1-.06-.21.27.27,0,0,1,0-.12.29.29,0,0,1,.07-.08l.3-.17s.07,0,.09,0l.06,0a.16.16,0,0,0,.1,0,.43.43,0,0,0,.2-.07l.12-.08.11-.1.09-.11A.27.27,0,0,0,129.87,394.81Z" style="fill:#e0e0e0"></path><path d="M108.57,394.7h.07a.1.1,0,0,1,0,.08v3.32a.26.26,0,0,1,0,.11s0,.07-.07.08l-.31.18a.08.08,0,0,1-.08,0,.12.12,0,0,1,0-.09V397l-1.16.67v1.36a.26.26,0,0,1,0,.11s0,.07-.07.08l-.31.18a.08.08,0,0,1-.08,0,.1.1,0,0,1,0-.08v-3.32a.23.23,0,0,1,0-.11.24.24,0,0,1,.08-.09l.31-.18H107a.1.1,0,0,1,0,.08v1.32l1.16-.67v-1.32a.23.23,0,0,1,0-.11.36.36,0,0,1,.08-.09Z" style="fill:#455a64"></path><path d="M110.54,393.57s.07,0,.09,0a.21.21,0,0,1,.06.1l.94,2.69v0a.26.26,0,0,1,0,.11.22.22,0,0,1-.07.09l-.28.16s-.09,0-.11,0a.09.09,0,0,1,0-.06l-.16-.47-1.22.7-.17.67a.37.37,0,0,1,0,.11.22.22,0,0,1-.11.1l-.27.16a.06.06,0,0,1-.08,0s0,0,0-.08v0l.94-3.79a1,1,0,0,1,0-.16.19.19,0,0,1,.1-.1Zm.21,2.13-.42-1.22-.43,1.7Z" style="fill:#455a64"></path><path d="M113.12,392.08c.31-.18.55-.22.72-.13s.26.33.26.71a2,2,0,0,1-.26,1,1.91,1.91,0,0,1-.72.72l-.62.35v1.14a.27.27,0,0,1,0,.12s0,.07-.07.08l-.31.18a.06.06,0,0,1-.08,0s0,0,0-.08v-3.31a.23.23,0,0,1,0-.11.24.24,0,0,1,.08-.09Zm-.62,2,.6-.34a1.2,1.2,0,0,0,.35-.32.82.82,0,0,0,.13-.48c0-.19,0-.3-.13-.32a.47.47,0,0,0-.35.09l-.6.34Z" style="fill:#455a64"></path><path d="M115.65,390.61c.31-.18.55-.22.73-.12s.25.33.25.71a2,2,0,0,1-.25,1,2.07,2.07,0,0,1-.73.71l-.61.36v1.14a.27.27,0,0,1,0,.12.2.2,0,0,1-.08.08l-.31.18s-.05,0-.07,0a.1.1,0,0,1,0-.08v-3.31a.27.27,0,0,1,0-.12s0-.07.07-.08Zm-.61,2,.59-.35A.91.91,0,0,0,116,392a.77.77,0,0,0,.13-.47c0-.2,0-.3-.13-.33a.51.51,0,0,0-.35.1l-.59.34Z" style="fill:#455a64"></path><path d="M119,388.67h.07a.11.11,0,0,1,0,.08v.05l-.91,2.67v1.13a.25.25,0,0,1,0,.11.22.22,0,0,1-.07.09l-.31.17a.06.06,0,0,1-.07,0,.11.11,0,0,1,0-.08v-1.13l-.91-1.62s0,0,0,0a.23.23,0,0,1,0-.11.35.35,0,0,1,.07-.09l.29-.16s.09,0,.12,0l0,0,.63,1.09.62-1.81,0-.1a.25.25,0,0,1,.11-.12Z" style="fill:#455a64"></path><path d="M122.37,386.73h.08a.1.1,0,0,1,0,.08v3.32a.26.26,0,0,1,0,.11.15.15,0,0,1-.08.08l-.31.18a.06.06,0,0,1-.07,0,.11.11,0,0,1,0-.08v-1.36l-1.16.67v1.36a.26.26,0,0,1,0,.11.15.15,0,0,1-.08.08l-.31.18a.06.06,0,0,1-.07,0,.1.1,0,0,1,0-.08v-3.32a.23.23,0,0,1,0-.11.22.22,0,0,1,.07-.09l.31-.18h.08a.1.1,0,0,1,0,.08v1.32l1.16-.67v-1.32a.23.23,0,0,1,0-.11.22.22,0,0,1,.07-.09Z" style="fill:#455a64"></path><path d="M124.34,385.6s.08,0,.1,0,0,.05,0,.1l.94,2.69s0,0,0,0a.19.19,0,0,1,0,.11.22.22,0,0,1-.07.09l-.28.16s-.08,0-.1,0a.1.1,0,0,1,0-.06l-.16-.47-1.22.7-.16.67,0,.11a.27.27,0,0,1-.11.1l-.28.16s-.05,0-.07,0,0,0,0-.08v0l.94-3.79a.91.91,0,0,1,.06-.16.22.22,0,0,1,.09-.1Zm.21,2.13-.42-1.22-.42,1.7Z" style="fill:#455a64"></path><path d="M127.57,386.68a.06.06,0,0,1,.08,0s0,0,0,.08v.36a.27.27,0,0,1,0,.12.2.2,0,0,1-.08.08l-1.68,1a.06.06,0,0,1-.07,0,.11.11,0,0,1,0-.08V384.9a.23.23,0,0,1,0-.11.22.22,0,0,1,.07-.09l.31-.18h.07a.1.1,0,0,1,0,.08v2.81Z" style="fill:#455a64"></path><path d="M129.84,385.37h.07a.11.11,0,0,1,0,.08v.37a.26.26,0,0,1,0,.11.35.35,0,0,1-.07.09l-1.69,1h-.07a.1.1,0,0,1,0-.08V383.6a.27.27,0,0,1,0-.12s0-.07.07-.08l.31-.18a.06.06,0,0,1,.08,0s0,0,0,.08v2.81Z" style="fill:#455a64"></path><path d="M130.18,383.57a2.39,2.39,0,0,1,.08-.59,2.49,2.49,0,0,1,.21-.56,2.45,2.45,0,0,1,.34-.5,1.92,1.92,0,0,1,.5-.39,1.15,1.15,0,0,1,.48-.18.46.46,0,0,1,.35.1.69.69,0,0,1,.21.32,1.71,1.71,0,0,1,.09.49v.92a3,3,0,0,1-.09.59,1.9,1.9,0,0,1-.21.56,2,2,0,0,1-.83.89,1.06,1.06,0,0,1-.5.17.49.49,0,0,1-.34-.09.69.69,0,0,1-.21-.32,1.48,1.48,0,0,1-.08-.49,1.55,1.55,0,0,1,0-.22v-.48A1.48,1.48,0,0,1,130.18,383.57Zm1.74-1a.56.56,0,0,0-.18-.47.39.39,0,0,0-.43.05,1.12,1.12,0,0,0-.44.45,1.48,1.48,0,0,0-.18.67v.87a.56.56,0,0,0,.18.47.43.43,0,0,0,.44-.05,1.24,1.24,0,0,0,.43-.45,1.49,1.49,0,0,0,.18-.68c0-.13,0-.28,0-.43S131.92,382.71,131.92,382.59Z" style="fill:#455a64"></path><path d="M134.16,381.81l-.33,1.73a.88.88,0,0,1-.05.15.27.27,0,0,1-.08.1l-.32.18a.07.07,0,0,1-.09,0,.19.19,0,0,1,0-.1l-.49-2.95a.08.08,0,0,1,0,0,.27.27,0,0,1,0-.12.2.2,0,0,1,.08-.08l.28-.16a.06.06,0,0,1,.07,0s0,0,0,.08l.32,2,.29-1.53a1,1,0,0,1,0-.11.29.29,0,0,1,.1-.12l.32-.18s.08,0,.1,0a.13.13,0,0,1,0,.07l.29,1.21.32-2.36a.29.29,0,0,1,.05-.14.16.16,0,0,1,.07-.07l.28-.17h.08a.11.11,0,0,1,0,.08.11.11,0,0,1,0,.05l-.49,3.52a.83.83,0,0,1,0,.15.22.22,0,0,1-.09.1l-.31.18s-.07,0-.09,0a.19.19,0,0,1,0-.1Z" style="fill:#455a64"></path><path d="M137.8,380.78a0,0,0,0,1,.07,0s0,0,0,.08v.36a.27.27,0,0,1,0,.12.29.29,0,0,1-.07.08l-1.69,1a.08.08,0,0,1-.08,0,.11.11,0,0,1,0-.08V379a.23.23,0,0,1,0-.11.36.36,0,0,1,.08-.09l1.66-.95a0,0,0,0,1,.07,0,.08.08,0,0,1,0,.07v.37a.23.23,0,0,1,0,.11.35.35,0,0,1-.07.09l-1.25.72V380l1.16-.67a.08.08,0,0,1,.07,0,.1.1,0,0,1,0,.08v.36a.28.28,0,0,1,0,.12s0,.07-.07.08l-1.16.67v.85Z" style="fill:#455a64"></path><path d="M140.17,379.41s.05,0,.07,0,0,0,0,.08v.36a.27.27,0,0,1,0,.12.27.27,0,0,1-.07.08l-1.69,1a.06.06,0,0,1-.07,0,.11.11,0,0,1,0-.08v-3.32a.23.23,0,0,1,0-.11.22.22,0,0,1,.07-.09l1.66-.95s.05,0,.07,0a.08.08,0,0,1,0,.07v.37a.23.23,0,0,1,0,.11.22.22,0,0,1-.07.09l-1.24.72v.81l1.15-.67h.08a.1.1,0,0,1,0,.08v.36a.27.27,0,0,1,0,.12.15.15,0,0,1-.08.08l-1.15.67v.85Z" style="fill:#455a64"></path><path d="M142.5,378.71a.12.12,0,0,1-.1,0l-.05-.05-1.08-1.51v2.11a.27.27,0,0,1,0,.12.19.19,0,0,1-.07.08l-.31.18a.06.06,0,0,1-.08,0s0,0,0-.08v-3.31a.23.23,0,0,1,0-.11.24.24,0,0,1,.08-.09l.26-.15s.08,0,.1,0a.11.11,0,0,1,.05,0l1.08,1.51v-2.11a.27.27,0,0,1,0-.12.15.15,0,0,1,.08-.08l.31-.18s0,0,.07,0,0,0,0,.08v3.31a.27.27,0,0,1,0,.12.19.19,0,0,1-.07.08Z" style="fill:#455a64"></path><path d="M143.86,377.19h.07a.1.1,0,0,1,0,.08v.45a.27.27,0,0,1,0,.12.19.19,0,0,1-.07.08l-.34.19a0,0,0,0,1-.07,0s0,0,0-.08v-.45a.23.23,0,0,1,0-.11.35.35,0,0,1,.07-.09Zm.08-.49a.23.23,0,0,1,0,.11.35.35,0,0,1-.07.09l-.3.16a.06.06,0,0,1-.07,0,.11.11,0,0,1,0-.08v-2.28a.27.27,0,0,1,0-.12.29.29,0,0,1,.07-.08l.3-.17h.07a.1.1,0,0,1,0,.08Z" style="fill:#455a64"></path><path d="M144.89,376.59H145a.1.1,0,0,1,0,.08v.45a.27.27,0,0,1,0,.12.15.15,0,0,1-.08.08l-.33.19s-.05,0-.07,0,0,0,0-.08V377a.23.23,0,0,1,0-.11.22.22,0,0,1,.07-.09Zm.09-.49a.23.23,0,0,1,0,.11.24.24,0,0,1-.08.09l-.29.17h-.07a.1.1,0,0,1,0-.08v-2.28a.27.27,0,0,1,0-.12.19.19,0,0,1,.07-.08l.29-.17H145a.1.1,0,0,1,0,.08Z" style="fill:#455a64"></path><path d="M145.93,376H146a.1.1,0,0,1,0,.08v.45a.27.27,0,0,1,0,.12.15.15,0,0,1-.08.08l-.33.19s0,0-.07,0,0,0,0-.08v-.45a.23.23,0,0,1,0-.11.22.22,0,0,1,.07-.09Zm.09-.49a.23.23,0,0,1,0,.11.24.24,0,0,1-.08.09l-.29.16a.06.06,0,0,1-.07,0,.11.11,0,0,1,0-.08v-2.28a.27.27,0,0,1,0-.12.19.19,0,0,1,.07-.08l.29-.17H146a.1.1,0,0,1,0,.08Z" style="fill:#455a64"></path><path d="M125.9,203.74,99.29,219.11c-.67.38-1.21,0-1.21-.92h0a2.9,2.9,0,0,1,1.21-2.31l26.61-15.36c.67-.39,1.21,0,1.21.91h0A2.88,2.88,0,0,1,125.9,203.74Z" style="fill:#455a64"></path><path d="M95,222.22c0,3.44-2.1,7.45-4.69,8.94s-4.68-.09-4.68-3.54,2.1-7.45,4.68-8.94S95,218.77,95,222.22Z" style="fill:#fff"></path><path d="M90.3,227.39a3.87,3.87,0,0,0,1.62-3.1c0-1.19-.72-1.73-1.62-1.22a3.89,3.89,0,0,0-1.62,3.09C88.68,227.36,89.41,227.9,90.3,227.39Z" style="fill:#7E57C2"></path><path d="M92.83,221.59a4.58,4.58,0,0,1-1.11.63l0,0a.42.42,0,0,1-.07-.19c0-.19,0-.28-.19-.19a5.46,5.46,0,0,0-.17-1h0a1.55,1.55,0,0,0-.11-.36,4.44,4.44,0,0,0-.57-.89c-.13-.17-.24,0-.53.19s-.25.48-.87,1.06l-.59.53a1.69,1.69,0,0,0-.36.35c-.12.17.24.42,1.22-.24l-.1.45c-.07.37-.17.89-.21,1.24-.12.07-.14.19-.15.38a5,5,0,0,1-.17.54,4.6,4.6,0,0,0-1.18,1.11c-.19.29-.18.46,0,.54h0a.85.85,0,0,0,.56,0,7.08,7.08,0,0,0,1.72-.89l.18,0a3.37,3.37,0,0,0,1.36-.76l.35-.35h0a6.85,6.85,0,0,0,1-1.41C93.28,221.43,93.12,221.28,92.83,221.59Z" style="fill:#455a64"></path><path d="M90.3,231.16a8.79,8.79,0,0,0,3-3.09l0-.23c0-.83-.56-1.2-1.17-.85l-3.52,2a2.93,2.93,0,0,0-1.17,2.21v.24A3,3,0,0,0,90.3,231.16Z" style="fill:#7E57C2"></path><path d="M90.3,231.32c-2.64,1.52-4.79-.1-4.79-3.63s2.15-7.64,4.79-9.17,4.8.1,4.8,3.63S93,229.79,90.3,231.32Zm0-12.49c-2.52,1.45-4.57,5.37-4.57,8.73s2,4.91,4.57,3.45,4.57-5.37,4.57-8.73S92.82,217.37,90.3,218.83Z" style="fill:#455a64"></path><path d="M120.79,212.19,99.07,224.73c-.55.31-1,0-1-.75h0a2.34,2.34,0,0,1,1-1.88l21.72-12.55c.54-.31,1,0,1,.75h0A2.39,2.39,0,0,1,120.79,212.19Z" style="fill:#e0e0e0"></path><path d="M144.34,198.59,125.61,209.4c-.55.32-1,0-1-.74h0a2.36,2.36,0,0,1,1-1.89L144.34,196c.54-.32,1,0,1,.75h0A2.36,2.36,0,0,1,144.34,198.59Z" style="fill:#e0e0e0"></path></g><polygon points="197.19 313.97 82.32 380.29 82.32 241.34 197.19 175.02 197.19 313.97" style="fill:#455a64"></polygon><polygon points="187.95 294.48 112.4 338.09 112.4 237.37 187.95 193.75 187.95 294.48" style="fill:#fff"></polygon><polygon points="182.51 290.37 117.84 327.71 117.84 241.48 182.51 204.14 182.51 290.37" style="fill:#7E57C2"></polygon><polygon points="182.51 290.37 117.84 327.71 117.84 241.48 182.51 204.14 182.51 290.37" style="fill:#fff;opacity:0.65"></polygon><path d="M121.55,244.29v76.32l57.25-33.05V211.24ZM178,286.94,122.38,319V297L141,267.82l18.86,9.28a.27.27,0,0,0,.26,0,1,1,0,0,0,.27-.29.8.8,0,0,0,.08-.75l-3.77-6.41,9.55-13.56L178,258.52Zm0-29.7-11.52-2.4a.48.48,0,0,0-.43.25l-10.1,14.34a.83.83,0,0,0-.13.82l2.84,4.84-17.36-8.55c-.15-.08-.35,0-.51.28l-18.38,28.84V244.91L178,212.82Zm-21.45-3.61c3.5-2,6.34-7.46,6.34-12.12s-2.84-6.82-6.34-4.8-6.34,7.46-6.34,12.12S153,255.65,156.52,253.63Zm0-15.82c3-1.75,5.52.12,5.52,4.17s-2.48,8.79-5.52,10.55-5.52-.12-5.52-4.17S153.48,239.57,156.52,237.81Z" style="fill:#fff"></path><path d="M129.05,316.91a1.63,1.63,0,0,0-.07-.26h0c-2.14-7.79-8.59-8.26-12.92-5.12-3.79,2.75-3.72,5.42-3.55,6.32a12,12,0,0,0-2.38-3.87,6.38,6.38,0,0,0-4.5-1.7,4,4,0,0,0-3.23,2.35c-1,1.81-.87,2.64-1.4,2.93s-1.56,1-1.56,1-.22,2.23.61,3a11.08,11.08,0,0,1,.34-2.42c.24-.43.74.52,1.25.06s.62-2.29,1.49-2.57,1.89.86,1.7,3a12,12,0,0,1-1.71,4.5c-.26-1-.55-2.86-4.49,0-4.32,3.13-9.93,12.34-10.55,22.12h0l0,.32a28.1,28.1,0,0,0,.06,3.67c.87,9.95,6.4,10.82,9.06,8.72,3.09,1.57,7-.1,9-2.94h0a6.85,6.85,0,0,0,4.36-1.59,15.68,15.68,0,0,0,4.1-4.54h0c2.25-.26,6-4.08,8.41-9.68,2.69-1.78,7.42-10.09,6.55-20A19.19,19.19,0,0,0,129.05,316.91Z" style="fill:#7E57C2"></path><path d="M129.05,316.91a1.63,1.63,0,0,0-.07-.26h0c-2.14-7.79-8.59-8.26-12.92-5.12-3.79,2.75-3.72,5.42-3.55,6.32a12,12,0,0,0-2.38-3.87,6.38,6.38,0,0,0-4.5-1.7,4,4,0,0,0-3.23,2.35c-1,1.81-.87,2.64-1.4,2.93s-1.56,1-1.56,1-.22,2.23.61,3a11.08,11.08,0,0,1,.34-2.42c.24-.43.74.52,1.25.06s.62-2.29,1.49-2.57,1.89.86,1.7,3a12,12,0,0,1-1.71,4.5c-.26-1-.55-2.86-4.49,0-4.32,3.13-9.93,12.34-10.55,22.12h0l0,.32a28.1,28.1,0,0,0,.06,3.67c.87,9.95,6.4,10.82,9.06,8.72,3.09,1.57,7-.1,9-2.94h0a6.85,6.85,0,0,0,4.36-1.59,15.68,15.68,0,0,0,4.1-4.54h0c2.25-.26,6-4.08,8.41-9.68,2.69-1.78,7.42-10.09,6.55-20A19.19,19.19,0,0,0,129.05,316.91Z" style="fill:#fff;opacity:0.2"></path><path d="M115.31,334.48s-.81,3.82-1.4,5.41l-2.48-2.21s-1.45,4.18-2.33,6.17a11.17,11.17,0,0,1-2-2.61l-2.73,5.31s-.8-2.57-1.14-3.9a34.86,34.86,0,0,1-6,4.92s2,.62,4.5-1.41l2,4.32,3.24-5.62,2.14,3.11,2.52-6.25,3.7,1.12.74-5.71s2-.32,3.91-3.48A5.24,5.24,0,0,1,115.31,334.48Zm-9.6,3c-2.75.57-7.62-4.1-7.62-4.1s-.78,7.2.34,9.25C101.38,342.73,105.71,337.46,105.71,337.46Zm13.67-10c.47-3.29-1.78-8.12-1.78-8.12s-3,10.78-5.38,14.24A15.38,15.38,0,0,0,119.38,327.43Z" style="fill:#263238"></path><path d="M126.24,328.27c0-.08,0-.15,0-.22h0c1.4-6.69,5.61-11.86,8.43-13.07,2.48-1.06,2.43.73,2.32,1.45a28.1,28.1,0,0,1,1.55-4.32,20.37,20.37,0,0,1,2.93-4.5c.75-.72,1.5-1.38,2.11-.9s.57,1.07.91.86a10.3,10.3,0,0,1,1-.5,5.19,5.19,0,0,1-.4,2.45s-.06-1.22-.22-1.33-.48.9-.81,1-.41-1-1-.55a4.39,4.39,0,0,0-1.1,3.21,2.12,2.12,0,0,0,1.11,1.65c.17-.88.36-2.28,2.93-3.39,2.82-1.21,6.48.58,6.88,6.49h0c0,.06,0,.12,0,.19a18.4,18.4,0,0,1,0,2.44c-.57,7.14-4.17,11.87-5.91,12.51-2,3.35-4.55,5.19-5.87,4.86h0a7.64,7.64,0,0,1-2.84,2.24,3.16,3.16,0,0,1-2.67.13h0a3.64,3.64,0,0,1-5.49,0c-1.75.86-4.84-1-4.27-8.14A21.77,21.77,0,0,1,126.24,328.27Z" style="fill:#7E57C2"></path><path d="M132.12,332.4c1.22.65,2.55-.68,2.55-.68l.48,3.18,2.41-3.52,1.65,2.17,1.39-3.63,2.11,1.22,1.33-4.35a7.15,7.15,0,0,0,2.93-2.47,11.44,11.44,0,0,1-3.89,1.29c-.23,1.13-.75,3.41-.75,3.41l-1.78-1.41a31.19,31.19,0,0,1-1.3,3.21,20,20,0,0,1-1.52-2.27l-1.62,3.31a14.61,14.61,0,0,1-.91-2.48C133.48,332,132.12,332.4,132.12,332.4ZM146.21,322c.73-2.18.22-6.28.22-6.28s-3.17,6.7-5,8.41A6.17,6.17,0,0,0,146.21,322Zm-9,4.48c-1.56-.44-3.5-5.24-3.5-5.24s-1.47,4.85-1.16,6.64C134.11,328.84,137.21,326.45,137.21,326.45Z" style="fill:#263238"></path><path d="M87.24,289.31c1.56-3,4.11-4.46,5.68-3.27l1.36,1c2,1.51,5.25-.37,7.26-4.19l1.36-2.61c1.56-3,4.11-4.46,5.67-3.27l1.36,1a3.17,3.17,0,0,0,3.63-.09,10.11,10.11,0,0,0,3.63-4.1l1.36-2.61c1.57-3,4.11-4.45,5.68-3.27.22.16.57,0,.79-.46s.22-.89,0-1.05c-2-1.51-5.26.36-7.26,4.19l-1.36,2.6a7.94,7.94,0,0,1-2.84,3.21,2.48,2.48,0,0,1-2.83.07l-1.37-1c-2-1.51-5.25.37-7.25,4.19l-1.37,2.61c-1.56,3-4.1,4.46-5.67,3.28l-1.36-1c-2-1.51-5.26.37-7.26,4.19l-1.36,2.61a8,8,0,0,1-2.77,3.16V296a10.16,10.16,0,0,0,3.56-4.05Z" style="fill:#7E57C2"></path><path d="M87.24,281.35c1.56-3,4.11-4.45,5.68-3.27l1.36,1c2,1.51,5.25-.37,7.26-4.19l1.36-2.6c1.56-3,4.11-4.46,5.67-3.28l1.36,1a3.17,3.17,0,0,0,3.63-.09,10.11,10.11,0,0,0,3.63-4.1l1.36-2.6c1.57-3,4.11-4.46,5.68-3.28.22.17.57,0,.79-.46s.22-.89,0-1.05c-2-1.51-5.26.37-7.26,4.19l-1.36,2.6a7.94,7.94,0,0,1-2.84,3.21,2.47,2.47,0,0,1-2.83.07l-1.37-1c-2-1.51-5.25.37-7.25,4.19l-1.37,2.6c-1.56,3-4.1,4.46-5.67,3.28l-1.36-1c-2-1.52-5.26.37-7.26,4.19l-1.36,2.6a8,8,0,0,1-2.77,3.16V288A10.2,10.2,0,0,0,85.88,284Z" style="fill:#7E57C2"></path><path d="M121.39,250.62a10.11,10.11,0,0,0-3.63,4.1l-1.36,2.61a8,8,0,0,1-2.84,3.2,2.47,2.47,0,0,1-2.83.07l-1.37-1a3.17,3.17,0,0,0-3.63.09,10.09,10.09,0,0,0-3.62,4.1l-1.37,2.6c-1.56,3-4.11,4.46-5.67,3.28l-1.36-1a3.17,3.17,0,0,0-3.63.09,10.11,10.11,0,0,0-3.63,4.1l-1.36,2.6a8,8,0,0,1-2.77,3.16v1.5A10.2,10.2,0,0,0,85.88,276l1.36-2.6a7.94,7.94,0,0,1,2.84-3.21,2.5,2.5,0,0,1,2.84-.07l1.36,1c2,1.51,5.25-.37,7.26-4.19l1.36-2.6c1.56-3,4.11-4.46,5.67-3.28l1.36,1a3.16,3.16,0,0,0,3.63-.09,10,10,0,0,0,3.63-4.1l1.36-2.6a7.84,7.84,0,0,1,2.84-3.2,2.47,2.47,0,0,1,2.84-.07c.22.16.57,0,.79-.46s.22-.89,0-1.06A3.17,3.17,0,0,0,121.39,250.62Z" style="fill:#7E57C2"></path></g></g><g id="freepik--post-2--inject-12"><g id="freepik--Image--inject-12"><path d="M334.38,221.27,219.51,287.59v139l6.05,3.49,114.87-66.32V224.76Z" style="fill:#37474f"></path><polygon points="225.56 291.08 219.51 287.59 219.51 426.54 225.56 430.04 225.56 291.08" style="fill:#263238"></polygon><polygon points="340.43 363.71 225.56 430.03 225.56 291.08 340.43 224.76 340.43 363.71" style="fill:#7E57C2"></polygon><polygon points="340.43 363.71 225.56 430.03 225.56 291.08 340.43 224.76 340.43 363.71" style="opacity:0.25"></polygon><polygon points="328.02 334.5 262.52 372.32 262.52 284.98 328.02 247.16 328.02 334.5" style="fill:#fff"></polygon><polygon points="323.31 330.94 267.23 363.32 267.23 288.54 323.31 256.16 323.31 330.94" style="fill:#7E57C2"></polygon><g style="opacity:0.65"><polygon points="323.31 330.94 267.23 363.32 267.23 288.54 323.31 256.16 323.31 330.94" style="fill:#fff"></polygon></g><path d="M270.45,291v66.18l49.64-28.66V262.32Zm48.92,37-48.2,27.83V336.72l16.14-25.34,16.36,8.05a.22.22,0,0,0,.22,0,.72.72,0,0,0,.24-.25.71.71,0,0,0,.07-.65L300.93,313l8.28-11.75,10.16,2.12Zm0-25.75-10-2.09a.41.41,0,0,0-.37.23l-8.76,12.43a.77.77,0,0,0-.12.71l2.47,4.2-15.05-7.42c-.13-.06-.31,0-.44.24l-15.94,25v-44l48.2-27.83Zm-18.6-3.14c3-1.75,5.5-6.46,5.5-10.5s-2.46-5.91-5.5-4.16-5.5,6.46-5.5,10.51S297.74,300.83,300.77,299.07Zm0-13.71c2.64-1.52,4.79.1,4.79,3.62s-2.15,7.62-4.79,9.14S296,298,296,294.5,298.13,286.89,300.77,285.36Z" style="fill:#fff"></path><path d="M256.86,408.47l-1,.57V377.76c0-3.76-2.29-5.5-5.11-3.86l-5,2.88v-5.62l2.61-1.51v-3.18L245.75,368v-3.8l-2.66,1.54v3.79L240.48,371v3.18l2.61-1.51v5.63l-5,2.89c-2.82,1.63-5.11,6-5.11,9.77v31.28l-1,.57a6.25,6.25,0,0,0-2.62,5l30.1-17.38C259.47,408.52,258.3,407.64,256.86,408.47Z" style="fill:#263238"></path><polygon points="262.45 408.73 267.84 405.62 269.32 390.46 274.51 388.42 275.16 381.72 269.98 383.75 270.76 375.76 265.48 377.84 264.7 385.83 259.51 387.87 258.86 394.57 264.04 392.53 262.45 408.73" style="fill:#263238"></polygon><path d="M335.5,357.15c-1.56-1.18-4.1.29-5.67,3.28l-1.36,2.6c-2,3.83-5.26,5.7-7.26,4.19l-1.36-1c-1.56-1.18-4.11.29-5.67,3.28l-1.37,2.6a10.09,10.09,0,0,1-3.62,4.1,3.17,3.17,0,0,1-3.63.09l-1.37-1c-1.56-1.18-4.11.29-5.67,3.28-.22.41-.57.62-.79.45s-.22-.64,0-1c2-3.82,5.25-5.7,7.26-4.19l1.36,1a2.48,2.48,0,0,0,2.84-.07,7.92,7.92,0,0,0,2.83-3.21l1.36-2.6c2-3.82,5.26-5.7,7.26-4.19l1.36,1c1.57,1.18,4.11-.28,5.68-3.27l1.36-2.61c2-3.82,5.26-5.7,7.26-4.19l1.36,1a2.45,2.45,0,0,0,2.77,0v1.5a3.12,3.12,0,0,1-3.56.05Z" style="fill:#7E57C2"></path><path d="M335.5,349.2c-1.56-1.19-4.1.28-5.67,3.27l-1.36,2.61c-2,3.82-5.26,5.7-7.26,4.19l-1.36-1c-1.56-1.18-4.11.29-5.67,3.28l-1.37,2.6a10,10,0,0,1-3.62,4.1,3.14,3.14,0,0,1-3.63.09l-1.37-1c-1.56-1.18-4.11.29-5.67,3.28-.22.42-.57.62-.79.46s-.22-.64,0-1.06c2-3.82,5.25-5.7,7.26-4.19l1.36,1a2.48,2.48,0,0,0,2.84-.07,8,8,0,0,0,2.83-3.2l1.36-2.61c2-3.82,5.26-5.7,7.26-4.19l1.36,1c1.57,1.18,4.11-.28,5.68-3.27l1.36-2.61c2-3.82,5.26-5.7,7.26-4.19l1.36,1a2.43,2.43,0,0,0,2.77,0v1.5a3.14,3.14,0,0,1-3.56.06Z" style="fill:#7E57C2"></path><path d="M301.36,357.89a3.17,3.17,0,0,1,3.63-.09l1.36,1a2.47,2.47,0,0,0,2.84-.07,7.88,7.88,0,0,0,2.83-3.2l1.36-2.61a10.08,10.08,0,0,1,3.63-4.09,3.14,3.14,0,0,1,3.63-.09l1.36,1c1.57,1.18,4.11-.29,5.68-3.28l1.36-2.6a10,10,0,0,1,3.63-4.1,3.16,3.16,0,0,1,3.63-.09l1.36,1a2.45,2.45,0,0,0,2.77,0v1.49a3.13,3.13,0,0,1-3.56.06l-1.37-1a2.47,2.47,0,0,0-2.83.07,8,8,0,0,0-2.84,3.2l-1.36,2.61c-2,3.82-5.26,5.7-7.26,4.19l-1.36-1c-1.56-1.18-4.11.28-5.67,3.27l-1.37,2.61a10.09,10.09,0,0,1-3.62,4.1,3.17,3.17,0,0,1-3.63.09l-1.37-1a2.45,2.45,0,0,0-2.83.07,7.9,7.9,0,0,0-2.84,3.2c-.22.42-.57.62-.79.46s-.22-.64,0-1.06A10.18,10.18,0,0,1,301.36,357.89Z" style="fill:#7E57C2"></path><path d="M235.77,310.68c0,.47,0,.89,0,1.2l-.22.12c-.13-2-.28-2.61-1.48-1.91l-.53.3v8.43c0,1.2.17,1.28,1,.86v.3c-.34.16-.9.47-1.42.77s-1.12.66-1.43.87v-.3c.81-.51,1-.78,1-2v-8.43l-.53.3c-1.2.7-1.35,1.49-1.48,3.63l-.22.13c0-.32,0-.76,0-1.23s0-1.13-.07-1.86c.8-.42,1.94-1.07,2.73-1.53s1.91-1.1,2.71-1.61C235.78,309.52,235.77,310.31,235.77,310.68Z" style="fill:#fff"></path><path d="M242.25,314.79a2.53,2.53,0,0,1-1,1.54c-.49.28-.86.15-1-1L240,314c-.19-1.15-.33-1.92-1.09-1.48L238,313v3.4c0,1.08.13,1.16.78.82v.3c-.3.14-.78.41-1.22.67s-1,.57-1.24.75v-.3c.66-.42.78-.64.78-1.72V309.6c0-1.08-.12-1.15-.78-.82v-.3c.27-.12.75-.39,1.18-.63l1.46-.87c1.55-.9,2.33-.22,2.33,1.23a5.24,5.24,0,0,1-1.88,3.93l.12,0c.86-.28,1.17,0,1.35,1.17l.24,1.37c.12.8.23,1.09.5.93s.35-.42.53-.87ZM238,309.08v3.65l.65-.38a3.54,3.54,0,0,0,1.67-3.42c0-1.55-.43-2.21-1.6-1.53C238.09,307.74,238,308.06,238,309.08Z" style="fill:#fff"></path><path d="M244.76,303.88c-.65.43-.78.65-.78,1.73V313c0,1.07.13,1.15.78.82v.29c-.3.15-.78.41-1.23.67s-1,.57-1.23.76v-.3c.65-.42.78-.65.78-1.73v-7.34c0-1.08-.13-1.16-.78-.82V305c.27-.13.73-.38,1.23-.67s.93-.55,1.23-.75Z" style="fill:#fff"></path><path d="M250.21,301.19a.17.17,0,0,0,.19,0c.14-.07.21-.4.25-1l.22-.13c0,.74,0,1.71,0,3.43l-.22.13c-.14-1.18-.21-1.54-.49-1.91-.4-.57-1-.56-1.7-.18-1.26.73-2.09,3.21-2.09,6.43s.94,4.58,2.18,3.86a4,4,0,0,0,1.65-2.08,8.31,8.31,0,0,0,.45-2.6l.22-.13c0,1.8,0,2.8,0,3.54l-.22.13c0-.59-.1-.82-.24-.74a.82.82,0,0,0-.2.23,5.12,5.12,0,0,1-1.78,2c-1.84,1.06-3.07-.21-3.07-3.6s1.28-6.28,3.08-7.31A1.54,1.54,0,0,1,250.21,301.19Z" style="fill:#fff"></path><path d="M256.72,306a.7.7,0,0,0,.85.41v.3c-.3.14-.84.44-1.15.62s-.53.3-1,.62v-.3c.3-.19.45-.36.45-.56a.63.63,0,0,0-.1-.3l-1.41-2.45c-.39-.67-.57-.71-1-.49v3.73c0,1.08.13,1.16.79.82v.3c-.3.14-.79.41-1.23.66s-1,.58-1.24.76v-.3c.66-.42.79-.64.79-1.72v-7.35c0-1.08-.13-1.16-.79-.82v-.3c.27-.12.74-.38,1.24-.67s.93-.55,1.23-.75v.3c-.66.42-.79.65-.79,1.72v3.32a2.94,2.94,0,0,0,1.11-1.47l.92-2.34a5.81,5.81,0,0,0,.5-1.7c0-.34-.19-.41-.6-.19v-.3c.36-.18.77-.4,1.11-.59s.63-.38.82-.52v.29a4,4,0,0,0-1.14,1.74l-1.58,4Z" style="fill:#fff"></path><path d="M244,326.94c0,3.31-1.27,6.28-3.07,7.31s-3.06-.2-3.06-3.6,1.27-6.27,3.07-7.31S244,323.55,244,326.94Zm-5.17,3.1c0,3.15.95,4.61,2.14,3.92s2.07-3.34,2.07-6.4-.95-4.62-2.14-3.93S238.83,327,238.83,330Z" style="fill:#fff"></path><path d="M250.58,327.74a2.62,2.62,0,0,1-1,1.54c-.49.28-.86.15-1-1l-.21-1.35c-.19-1.15-.33-1.92-1.1-1.47l-.91.53v3.4c0,1.08.12,1.16.78.82v.3c-.3.14-.78.41-1.23.66s-1,.58-1.23.76v-.3c.65-.42.78-.64.78-1.72v-7.35c0-1.08-.13-1.16-.78-.82v-.3c.26-.12.75-.39,1.17-.63l1.46-.87c1.56-.9,2.33-.22,2.33,1.22a5.26,5.26,0,0,1-1.87,3.94l.11,0c.86-.28,1.17.05,1.36,1.17l.24,1.37c.12.8.22,1.09.49.93s.35-.42.53-.87ZM246.29,322v3.65l.65-.38a3.56,3.56,0,0,0,1.67-3.42c0-1.56-.44-2.21-1.61-1.53C246.41,320.69,246.29,321,246.29,322Z" style="fill:#fff"></path><path d="M235.22,346.5c0,.48,0,.9,0,1.2l-.22.13c-.14-2-.28-2.61-1.49-1.91l-.52.3v8.43c0,1.2.17,1.28,1,.86v.29c-.34.17-.9.48-1.42.78s-1.13.66-1.43.87v-.3c.81-.51,1-.79,1-2v-8.42l-.52.3c-1.21.7-1.35,1.49-1.49,3.63l-.22.13c0-.33,0-.76,0-1.24s0-1.13-.07-1.85c.8-.42,1.93-1.07,2.73-1.53s1.91-1.1,2.71-1.61C235.24,345.35,235.22,346.14,235.22,346.5Z" style="fill:#fff"></path><path d="M241.71,350.61a2.53,2.53,0,0,1-1,1.55c-.49.28-.86.15-1-1l-.21-1.35c-.19-1.15-.33-1.92-1.09-1.48l-.92.53v3.41c0,1.08.12,1.16.78.82v.3c-.3.14-.78.41-1.23.66s-1,.57-1.23.76v-.3c.65-.42.78-.65.78-1.72v-7.35c0-1.08-.13-1.16-.78-.82v-.3c.27-.12.75-.39,1.18-.64.61-.35,1.22-.73,1.45-.87,1.56-.9,2.33-.21,2.33,1.23a5.26,5.26,0,0,1-1.87,3.94l.12,0c.85-.28,1.16.05,1.35,1.17l.24,1.37c.12.79.23,1.09.5.93s.34-.42.52-.87Zm-4.29-5.7v3.65l.65-.38a3.54,3.54,0,0,0,1.67-3.42c0-1.56-.44-2.21-1.61-1.54C237.54,343.57,237.42,343.89,237.42,344.91Z" style="fill:#fff"></path><path d="M246.77,348.43c-.65.33-1.57.86-2.21,1.23s-1.86,1.07-2.8,1.66V351c.65-.42.78-.65.78-1.73V342c0-1.07-.13-1.15-.78-.82v-.29c.94-.51,2.22-1.24,2.8-1.58s1.42-.82,2-1.21c-.05.72-.07,1.45-.07,1.79s0,.69,0,.9l-.22.13c-.13-1.67-.28-2.17-1.3-1.58l-.8.47c-.66.37-.78.6-.78,1.68v3.49l.64-.37c.84-.49.82-1.72.89-2.47l.23-.13c0,.65,0,1.08,0,1.42s0,.49,0,.7c0,.49,0,1,.05,2.07l-.22.13c-.07-.9-.08-1.91-.92-1.42l-.64.37v3.56c0,1.07.12,1.15.78.77l.71-.41c1.2-.69,1.45-1.5,1.58-3.54l.22-.13c0,.28,0,.68,0,1.09S246.72,347.7,246.77,348.43Z" style="fill:#fff"></path><path d="M252.47,343.89c.19.65.47.67.67.57v.29c-.26.13-.67.35-1,.56s-1,.57-1.23.75v-.29c.46-.3.68-.53.68-.95a2.52,2.52,0,0,0-.11-.63l-.6-2.08-2.33,1.34-.39,1.8a6.08,6.08,0,0,0-.2,1.33c0,.64.29.7.84.4v.3c-.37.18-.77.4-1.11.6a7.21,7.21,0,0,0-.72.46V348a3.33,3.33,0,0,0,.76-1.72L250,336l.16-.09Zm-2.78-5.83-1.11,5.06,2.19-1.27Z" style="fill:#fff"></path><path d="M258,333.35c0,.48,0,.9,0,1.2l-.22.13c-.14-2-.28-2.61-1.49-1.92l-.52.31v8.42c0,1.2.16,1.29,1,.86v.3c-.34.17-.9.47-1.42.78s-1.12.66-1.43.87V344c.81-.51,1-.79,1-2v-8.43l-.52.31c-1.21.69-1.36,1.49-1.49,3.62l-.22.13c0-.32,0-.75,0-1.23s0-1.13-.08-1.85c.81-.42,1.94-1.08,2.73-1.53s1.91-1.11,2.71-1.61C258,332.2,258,333,258,333.35Z" style="fill:#fff"></path></g></g><g id="freepik--post-1--inject-12"><g id="freepik--image--inject-12"><path d="M334.38,66.27,219.51,132.59v139l6.05,3.49,114.87-66.32V69.76Z" style="fill:#37474f"></path><polygon points="225.56 136.08 219.51 132.59 219.51 271.54 225.56 275.04 225.56 136.08" style="fill:#263238"></polygon><polygon points="340.43 208.71 225.56 275.04 225.56 136.08 340.43 69.76 340.43 208.71" style="fill:#7E57C2"></polygon><polygon points="328.65 169.4 269.59 203.5 269.59 124.75 328.65 90.66 328.65 169.4" style="fill:#fff"></polygon><polygon points="324.4 166.19 273.84 195.38 273.84 127.97 324.4 98.77 324.4 166.19" style="fill:#7E57C2"></polygon><polygon points="324.4 166.19 273.84 195.38 273.84 127.97 324.4 98.77 324.4 166.19" style="fill:#fff;opacity:0.65"></polygon><path d="M276.74,130.16v59.67L321.49,164V104.33Zm44.11,33.35L277.39,188.6V171.4L292,148.56l14.74,7.26a.21.21,0,0,0,.2,0,.59.59,0,0,0,.21-.23.63.63,0,0,0,.07-.58l-2.95-5,7.46-10.59,9.17,1.91Zm0-23.22-9-1.88a.36.36,0,0,0-.33.2l-7.9,11.21a.68.68,0,0,0-.11.64l2.23,3.78-13.57-6.68c-.12-.06-.28,0-.4.21l-14.37,22.56V130.65l43.46-25.09Zm-16.77-2.83c2.73-1.57,5-5.82,5-9.47s-2.23-5.33-5-3.75-5,5.83-5,9.48S301.35,139,304.08,137.46Zm0-12.36c2.38-1.37,4.31.09,4.31,3.26s-1.93,6.87-4.31,8.24-4.31-.09-4.31-3.26S301.7,126.48,304.08,125.1Z" style="fill:#fff"></path><path d="M249.59,127.9c-1.81,2.84-1.81,5.78,0,6.55l1.58.66c2.3,1,2.3,4.73,0,8.38L249.59,146c-1.81,2.85-1.81,5.79,0,6.55l1.58.67a3.16,3.16,0,0,1,1.73,3.18,10.18,10.18,0,0,1-1.73,5.2l-1.58,2.48c-1.81,2.85-1.81,5.79,0,6.55.25.11.25.52,0,.91s-.66.64-.91.53c-2.31-1-2.31-4.73,0-8.38l1.57-2.48a7.85,7.85,0,0,0,1.36-4.06,2.46,2.46,0,0,0-1.36-2.49l-1.57-.67c-2.31-1-2.31-4.73,0-8.37l1.57-2.49c1.81-2.84,1.81-5.78,0-6.55l-1.57-.66c-2.31-1-2.31-4.74,0-8.38l1.57-2.48a8,8,0,0,0,1.35-4l1.3-.75a10.18,10.18,0,0,1-1.73,5.11Z" style="fill:#fff"></path><path d="M242.7,131.87c-1.81,2.85-1.81,5.79,0,6.55l1.57.67c2.31,1,2.31,4.73,0,8.38L242.7,150c-1.81,2.85-1.81,5.79,0,6.55l1.57.67a3.16,3.16,0,0,1,1.74,3.18,10.05,10.05,0,0,1-1.74,5.19L242.7,168c-1.81,2.85-1.81,5.79,0,6.55.25.11.25.51,0,.91s-.66.64-.92.53c-2.3-1-2.31-4.73,0-8.38l1.58-2.48a7.94,7.94,0,0,0,1.36-4.06,2.48,2.48,0,0,0-1.36-2.49l-1.58-.67c-2.31-1-2.3-4.73,0-8.38l1.58-2.48c1.8-2.85,1.81-5.79,0-6.55l-1.58-.66c-2.31-1-2.3-4.74,0-8.38l1.58-2.49a7.91,7.91,0,0,0,1.35-4l1.3-.75a10.2,10.2,0,0,1-1.74,5.11Z" style="fill:#fff"></path><path d="M233.16,176.81a10.09,10.09,0,0,1,1.73-5.19l1.58-2.48a7.92,7.92,0,0,0,1.35-4.06,2.47,2.47,0,0,0-1.35-2.49l-1.58-.67a3.16,3.16,0,0,1-1.73-3.19,10.09,10.09,0,0,1,1.73-5.19l1.58-2.48c1.8-2.85,1.8-5.79,0-6.55l-1.58-.67a3.15,3.15,0,0,1-1.73-3.18,10,10,0,0,1,1.73-5.19l1.58-2.49a8,8,0,0,0,1.35-4l1.29-.74a10.18,10.18,0,0,1-1.73,5.11l-1.57,2.48a7.85,7.85,0,0,0-1.36,4.06,2.46,2.46,0,0,0,1.36,2.49l1.57.67c2.31,1,2.31,4.73,0,8.38l-1.57,2.48c-1.81,2.85-1.81,5.79,0,6.55l1.57.66a3.18,3.18,0,0,1,1.74,3.19,10.08,10.08,0,0,1-1.74,5.19L235.81,172a7.84,7.84,0,0,0-1.36,4.05,2.48,2.48,0,0,0,1.36,2.5c.25.1.25.51,0,.91s-.66.64-.92.53A3.16,3.16,0,0,1,233.16,176.81Z" style="fill:#fff"></path><path d="M263.78,235.59l-3.26,1.88v-13l.91-.83v-.31l-4.32,2.5v.3l.91-.22v12.94l-.91.83v.3l8.11-4.68v-3.64l-.45.26A7.65,7.65,0,0,0,263.78,235.59ZM241,235.41l.91-.22v6.27l-3.27,1.88v-6.27l.91-.83v-.3l-4.32,2.5v.3l.91-.22v12.94l-.91.83v.3l4.32-2.5v-.3l-.91.22v-6.16l3.27-1.89v6.17L241,249v.3l4.32-2.49v-.31l-.91.23V233.75l.91-.83v-.31l-4.32,2.5Zm10.61-6.63-.46.26L247,244.9l-1.21,1.3v.31l2.8-1.62v-.31l-1.14,0,1-3.81,3.62-2.09.77,2c.29.74.9,1.2,2,.55l1.82-1.06v-.3l-.76.14Zm-3,11.45,1.65-6.27,1.67,4.35Zm24.47-10-3.26,1.88v-13l.91-.83V218l-4.33,2.5v.3l.91-.22v12.94l-.91.83v.31l8.12-4.69v-3.64l-.46.26A7.7,7.7,0,0,0,273,230.25Zm24.86-27.7,1.14-.05-2.19,9.85-2.29-6.46c-.27-.75-.91-1.19-2-.54l-1.82,1.05v.31l.83-.28,1.12,3.13-1.33,6L289,209.08c-.26-.76-.91-1.19-2-.53l-1.82,1v.3l.84-.28,4.09,11.49.46-.26,2.35-10.6,2.73,7.66.45-.26,3.41-15.42,1.22-1.3v-.31l-2.81,1.62Zm20,1.79-3.57,2.06v-6.27l1.75-1a3.36,3.36,0,0,0,.68,1.63l.46-.26v-4.55l-.46.26a10.24,10.24,0,0,0-.68,2.42l-1.75,1v-6.36l3.27-1.89c0,2.13,1,2.57,1,2.57l.46-.27V190l-8.12,4.68v.3l.91-.22v12.94l-.91.83v.3l8.42-4.86v-3.64l-.46.27A7.69,7.69,0,0,0,317.9,204.34Zm10-19.43v.31l1.22-.09v8.08l-4.86-4.78c-.38-.39-.91-.89-2.12-.19l-1.59.92v.3l1.06-.2v12.53l-1.21,1.31v.3l2.88-1.66v-.3l-1.21.09v-9.81l7.05,6.95.45-.26V184.86l1.22-1.31v-.3Zm-47.75,27.27c-3,1.71-4.93,5.48-4.93,10.23s2,6.24,4.93,4.53,4.93-5.47,4.93-10.22S283.11,210.47,280.15,212.18Zm0,14.36c-1.06.61-2.27-.31-2.27-5.66s1.21-7.68,2.27-8.29,2.28.3,2.28,5.66S281.21,225.93,280.15,226.54Zm28-16.56L304.56,212v-6.27l1.74-1a3.42,3.42,0,0,0,.68,1.63l.46-.27v-4.55l-.46.27a10.08,10.08,0,0,0-.68,2.41l-1.74,1V198.9l3.26-1.88c0,2.12,1,2.56,1,2.56l.46-.26v-3.64l-8.12,4.69v.3l.92-.22v12.94l-.92.83v.3l8.42-4.86V206l-.45.26A7.63,7.63,0,0,0,308.12,210Z" style="fill:#263238"></path><path d="M253.47,191.61c.18,0-.24,1.16-.43,2.41s.31,1.26.86.41a9.42,9.42,0,0,0,1.06-3.72c.18-1.42,0-2.11,4-4.12a9.59,9.59,0,0,0,5.16-5.67c.45-1.1.85-1.47.67.83s-.8,3.56-2.61,5.8a5.56,5.56,0,0,0-1.06,4.77s-3.33.06-3.43,4.77a3.77,3.77,0,0,0-3.92.91c-2.24,2.18-2.81,6.07-3.39,6.2s.21-3.8-1.42-5.08c-1.34-1-3.92.91-3.92.91,1.6-5.06-2-3.51-2-3.51s1.74-3.1.59-4.66-1.37-2.61-.72-5,.94-2.2,1-1.23,0,3.36,3.54,3.65,3.12,1.09,2.79,2.55a7.14,7.14,0,0,0-.21,3.52c.3.65.82.42,1.08-.86s.21-2.33.43-2.41,0,1.46.7,1.29S253.33,191.58,253.47,191.61Z" style="fill:#263238"></path><path d="M240.47,214.46c.14-.06.06.67.18,1.36s.48.48.71-.17a4.47,4.47,0,0,0,0-2.27c-.17-.77-.41-1,2-3.71s2.47-4.23,2.58-5,.31-1.08.65.11.14,2.08-.71,3.95.21,2.78.21,2.78-2.39,1.45-1.51,3.8a4.85,4.85,0,0,0-2.64,2.12c-1.18,2-.8,4.16-1.19,4.47s-.62-1.94-2.06-1.86c-1.17.07-2.64,2.13-2.64,2.13.12-3.15-2.15-.86-2.15-.86s.62-2.25-.53-2.52-1.51-.68-1.54-2.13.23-1.48.5-1.05.69,1.64,3.29.26,2.47-.8,2.53,0,.23,1.61.57,1.8.68-.15.61-.88-.33-1.23-.19-1.36.27.72.77.33S240.37,214.5,240.47,214.46Z" style="fill:#263238"></path></g></g><g id="freepik--Character--inject-12"><g id="freepik--character--inject-12"><g id="freepik--Bottom--inject-12"><path d="M449.08,387.26c-1-13.39,3.67-31.49,2.26-52.25-1.16-17.16-3.85-23-4.09-26.34,0,0-2.08-30.81-1.7-69.21.17-17.67-5.8-24.12-9.89-33.49l-54-.28c-4.36,24.6-4.62,72.59-4.46,96.43.09,12.16,4.46,74,4.44,75.47,0,5.66.17,6.8-1.91,9-4.36,4.67-10.46,8.28-15.92,12.36.79,2.09,8.15,2.92,11.4,1.33a83.84,83.84,0,0,0,12.12-7.72c4.48-3.32,10.21-6,10.28-11a6.27,6.27,0,0,1,.15-.9c.09-2.95,7.18-41.48,7.75-51.57.5-8.67-.56-23.4-.56-23.4l5.6-36.75s4.37,27.64,7.86,42.47c2.84,12.07,6.61,26.76,9.81,41.62h0c3.19,16.1,5.92,27.39,7.05,33.65-.18,3.47,2.77,24,3.73,28.56S450,420,450.68,412C451.1,406.78,449.26,389.78,449.08,387.26Z" style="fill:#ffbda7"></path><path d="M410.6,268.93l-4.09-26.52s-15.83-1.88-21.58-7.41c0,0,7.25,10.24,18,11.91l4.51,22-2.38,36.48Z" style="fill:#f0997a"></path><path d="M354.58,404.31c.52.91.07,4,1.56,5.28,1.72,1.52,6.8,4,13.56,3.24s10.43-2.85,13.16-5.08,6.54-5.38,9.6-6c2.84-.59,5.94-1.85,6.85-2.71s0-5.68,0-5.68Z" style="fill:#263238"></path><path d="M398,379.23s.51,0,.68.92c.19,1.08.38,4.2.81,6a31,31,0,0,1,.56,9.47c-.39,2-5,3.33-8,4.43a37.22,37.22,0,0,0-9.64,5.94c-3.19,2.58-9.89,5.13-14.29,5.15-6.72,0-11-1.85-12.36-4.27-1.63-3-1.11-5.63,6.65-9.12,1.46-.66,6.63-3.65,8.39-4.73a39,39,0,0,0,5.29-3.85,30.37,30.37,0,0,0,2.38-2.3,10.7,10.7,0,0,0,2-2.48c.09-.2.15-.44.23-.65a11.53,11.53,0,0,0,.52-1.8c.14-.64.22-1.58.84-2a4.91,4.91,0,0,1,2.29-.21,15.31,15.31,0,0,1,2.95.21c1.57.3,3.52,1.09,4.4,2.52a5.71,5.71,0,0,1,.6,2.8c0,.45,0,.9,0,1.35,0,.2-.09.54.19.46s.55-.74.65-1c.22-.5.36-1,.6-1.53a8,8,0,0,1,1-1.62,7.59,7.59,0,0,1,1.24-1.23,13.71,13.71,0,0,0,1.33-.85A3.07,3.07,0,0,0,398,379.23Z" style="fill:#37474f"></path><path d="M361.12,398.29c9.71.78,13.5,7.72,13.88,11.44a23,23,0,0,1-6.92,1.38c-6.72,0-11.32-1.85-12.64-4.27C353.91,404,354.2,400.83,361.12,398.29Z" style="fill:#fafafa"></path><path d="M376.48,399.46a.51.51,0,0,0,.31-.11.47.47,0,0,0,.07-.66c-1.34-1.68-6-4.82-9.55-4.47a.47.47,0,0,0-.43.52.47.47,0,0,0,.52.42c3.3-.31,7.66,2.79,8.72,4.12A.49.49,0,0,0,376.48,399.46Z" style="fill:#f0f0f0"></path><path d="M380.7,397.06a.49.49,0,0,0,.3-.1.48.48,0,0,0,.07-.67c-1.34-1.67-6-4.82-9.55-4.47a.47.47,0,0,0-.42.52.47.47,0,0,0,.51.43c3.3-.32,7.66,2.79,8.72,4.12A.48.48,0,0,0,380.7,397.06Z" style="fill:#f0f0f0"></path><path d="M384.6,394.32a.45.45,0,0,0,.31-.11.47.47,0,0,0,.07-.66c-1.34-1.67-6-4.82-9.55-4.47a.48.48,0,0,0-.43.52.47.47,0,0,0,.52.42c3.3-.31,7.66,2.8,8.72,4.12A.45.45,0,0,0,384.6,394.32Z" style="fill:#f0f0f0"></path><path d="M388.43,391.57a.47.47,0,0,0,.3-.1.47.47,0,0,0,.08-.66c-1.83-2.37-6.82-4.88-10.35-4.53a.48.48,0,0,0,.09,1c3.18-.31,7.88,2.06,9.51,4.16A.47.47,0,0,0,388.43,391.57Z" style="fill:#f0f0f0"></path><path d="M435.9,418.82c.27,4.58,1,7.62,2.61,10.31s4.69,3.53,7.8,2.75,7.09-2.9,8-6.85,1.41-6.67.7-10.92Z" style="fill:#263238"></path><path d="M449,385.62c1.28.1,1.66,6.25,2.39,12.42.79,6.6,2.77,9.34,3.47,14.75.81,6.19-.21,9-2.38,12.7s-9.84,7.41-13.63,2.05c-3.08-4.37-3.21-9.21-2.93-15.39a138,138,0,0,0-.41-15.66c-.25-4.63-1.28-9.31-.16-9.82.08.68.17,1.54.26,2.21a10.81,10.81,0,0,0,.41,2.47c.13.35.42.71.53.15a3.76,3.76,0,0,0,0-1.16c-.19-1.7.67-1.84,1.14-2a56.62,56.62,0,0,1,5.94-.85c1-.06,4.35-.21,4.79.35a3.75,3.75,0,0,1,.43,1.79c.11.93.33,1.61.35,1.32a27.24,27.24,0,0,0-.08-2.82c0-.4-.08-1-.09-1.35S449,386,449,385.62Z" style="fill:#37474f"></path><path d="M455.19,416.38a15.42,15.42,0,0,1-2.4,9.4c-2.16,3.75-10.46,7.43-14.24,2.07-1.88-2.67-2.39-5.82-2.65-9C438.17,414.68,451.61,412.86,455.19,416.38Z" style="fill:#fafafa"></path><path d="M438.7,412.09a.44.44,0,0,0,.15,0c.06,0,6-2.47,11.75-1.14a.48.48,0,0,0,.57-.35.47.47,0,0,0-.36-.57c-6.1-1.41-12.14,1.1-12.37,1.2a.49.49,0,0,0-.22.64A.5.5,0,0,0,438.7,412.09Z" style="fill:#f0f0f0"></path><path d="M450.31,406.29a.5.5,0,0,0,.41-.32.47.47,0,0,0-.3-.6c-5.74-1.95-12.11,1-12.35,1.1a.46.46,0,0,0-.2.64.49.49,0,0,0,.64.2c.05,0,6.26-2.86,11.6-1A.47.47,0,0,0,450.31,406.29Z" style="fill:#f0f0f0"></path><path d="M450.11,401.94a.46.46,0,0,0,.4-.31.48.48,0,0,0-.29-.61c-6.31-2.26-12.36.93-12.58,1.06a.48.48,0,0,0-.16.66.48.48,0,0,0,.65.16c.05,0,5.89-3.09,11.77-1A.39.39,0,0,0,450.11,401.94Z" style="fill:#f0f0f0"></path><path d="M449.8,397.66a.46.46,0,0,0,.39-.31.47.47,0,0,0-.27-.61c-5.92-2.21-12.43,1.06-12.68,1.2a.48.48,0,0,0-.17.65.47.47,0,0,0,.65.17c.06,0,6.37-3.19,11.86-1.13A.42.42,0,0,0,449.8,397.66Z" style="fill:#ebebeb"></path><g id="freepik--Tail--inject-12"><path d="M469.66,279.86a14.61,14.61,0,0,1-7.09.26A15.87,15.87,0,0,0,482,282.17c-4,.07-9.93-1.75-10.62-10.68A14.86,14.86,0,0,0,469.66,279.86Z" style="fill:#7E57C2"></path><path d="M477.41,282.57s.11.09.06.12c-3.71,1.79-7.63-1.15-9.47-4.27a24.21,24.21,0,0,1-2.41-6.77,63,63,0,0,1-1.36-7.94c-1.05-10,1.26-20.95-4.71-29.77a24.42,24.42,0,0,0-21.1-10.42c-8.48.36-16.49,5.11-21.55,11.81A34.79,34.79,0,0,0,411,248.18a37.77,37.77,0,0,0-1,7.18c-.12,2.67-.25,5.8-.14,8,0,.41-1.93.48-2.12-.4a45.4,45.4,0,0,1,0-13.33,36.13,36.13,0,0,1,4.6-13.22,32.87,32.87,0,0,1,21.4-15.5,27.57,27.57,0,0,1,23.9,6.59,23.6,23.6,0,0,1,6.66,10.23c1.67,5.28,1.41,11,1.28,16.43a74.78,74.78,0,0,0,1.49,18.1c.62,2.76,1.46,5.75,3.43,7.87A7.73,7.73,0,0,0,477.41,282.57Z" style="fill:#37474f"></path></g></g><g id="freepik--Top--inject-12"><path d="M442.48,159.81h0a17.62,17.62,0,0,1-17.62-17.62V102.5h2.92a14.7,14.7,0,0,1,14.7,14.69Z" style="fill:#37474f"></path><path d="M433.79,108a10.78,10.78,0,0,1,.48,2.24,6.57,6.57,0,0,1,0,1.47,5,5,0,0,1-4.84,4,7.5,7.5,0,0,1-5.81-3.11c-1.89-2.41-4.7-8.09-1-10.1a7.45,7.45,0,0,1,7.78.64A9.53,9.53,0,0,1,433.79,108Z" style="fill:#7E57C2"></path><path d="M433.79,108a10.78,10.78,0,0,1,.48,2.24,6.57,6.57,0,0,1,0,1.47,5,5,0,0,1-4.84,4,7.5,7.5,0,0,1-5.81-3.11c-1.89-2.41-4.7-8.09-1-10.1a7.45,7.45,0,0,1,7.78.64A9.53,9.53,0,0,1,433.79,108Z" style="opacity:0.25"></path><path d="M396.33,153.28c-6.77,1.39-13.15,3.8-17.12,10.53s-18,36.48-18,36.48l18.37,8.18,13.31-24.94Z" style="fill:#ffbda7"></path><path d="M446.23,230.94c-3.2-14.54-10.14-23.89-10.14-26,0-13.35,2.37-21.28,3.18-26.7,1.77-11.8-1.62-21.7-4.36-24,0,0-2.86-.66-6.27-1.47a49.2,49.2,0,0,0-5.89-1.06,70.93,70.93,0,0,0-15.76-.43c-1.28.13-7.35,1.18-7.35,1.18-1.83.42-3.3.87-3.31.88s-6.79,3.76-13.7,12.49c-3.8,4.81-13.23,17.29-2.46,28.45.24,3.26.39,4.68,1.19,10-5.75,28.18-8.09,69.18-8.09,76.81,15,12.7,59.9,11.36,76.88.76C448.14,264.6,448.28,240.26,446.23,230.94Z" style="fill:#263238"></path><g id="freepik--mobile--inject-12"><path d="M355.41,185.73h0l1.17-1.1v0a1.37,1.37,0,0,1,1.24-.19l14.39,3.34a4.86,4.86,0,0,1,3.06,2.65l10.55,26.89a1.26,1.26,0,0,1-.12,1.4h0l-1.21,1.12h0a1.35,1.35,0,0,1-1.25.2l-14.39-3.35a4.82,4.82,0,0,1-3.06-2.64c-2.07-5.29-8.48-21.61-10.55-26.9A1.21,1.21,0,0,1,355.41,185.73Z" style="fill:#455a64"></path><path d="M372.48,189.61a4.75,4.75,0,0,1,1.6,1.94l10.55,26.89a1.3,1.3,0,0,1-.08,1.38l1.14-1.06h0a1.24,1.24,0,0,0,.13-1.4l-10.55-26.9a4.56,4.56,0,0,0-1.48-1.84Z" style="fill:#455a64"></path><path d="M384.62,218.45l-10.54-26.9a4.85,4.85,0,0,0-3.06-2.64l-14.39-3.35c-1.23-.28-1.86.45-1.4,1.62,2.07,5.29,8.48,21.61,10.55,26.9a4.82,4.82,0,0,0,3.06,2.64l14.39,3.35C384.46,220.35,385.08,219.63,384.62,218.45Z" style="fill:#37474f"></path><path d="M374.29,197.27l-2-5a1,1,0,0,0-.58-.5l-2.48-.57c-.23,0-.35.09-.26.31l2,5a.9.9,0,0,0,.57.49l2.49.57C374.26,197.63,374.38,197.49,374.29,197.27Z" style="fill:#455a64"></path><path d="M372.25,193.46a2.28,2.28,0,0,0-1.46-1.21c-.6-.14-.91.18-.7.72a2.3,2.3,0,0,0,1.46,1.22C372.14,194.32,372.46,194,372.25,193.46Z" style="fill:#263238"></path><path d="M373.21,196a2.26,2.26,0,0,0-1.46-1.21c-.59-.14-.91.19-.7.72a2.32,2.32,0,0,0,1.46,1.22C373.11,196.86,373.42,196.54,373.21,196Z" style="fill:#263238"></path><path d="M358.66,202.6c-1.51-1.69-1.42-1.94-.81-2.95a5.8,5.8,0,0,1,4.43-2.92c1.61-.13,3.23-.34,4.11,0s.36,2.16-1.68,2.86c-3.23,1.1-3.11,2-3.11,2a43.52,43.52,0,0,1,4.19-1.22,31,31,0,0,1,4.92.21c1.42.06,1.89,1.83-.4,2.71l2.6.13c1.82.09,2.53,1,1.25,2.23a2.67,2.67,0,0,1-1.56.79s1.91-.21,2,.42c.31,1.8-.82,2.41-4.54,3.94-3.55,1.47-4.09,3.53-3.22,4.81,0,0-1.57-.7-3-1.46-1-.56-1.94-1.22-1.67-2.77,0,0-2.09.27-2.36-1a6.72,6.72,0,0,1,.2-2.83,2.29,2.29,0,0,1-1.39-2,3.79,3.79,0,0,1,.51-2.36Z" style="fill:#ffbda7"></path><path d="M370.31,203.29a12.3,12.3,0,0,0-2.35,0,7.72,7.72,0,0,0-2.16,1,26.75,26.75,0,0,0-3.81,2.61,27.82,27.82,0,0,0,4.14-2,12,12,0,0,1,2-1C368.77,203.62,369.57,203.52,370.31,203.29Z" style="fill:#f0997a"></path><path d="M372.6,206.44a5.11,5.11,0,0,0-2.51.2,13.25,13.25,0,0,0-2.31,1,23.57,23.57,0,0,0-4.11,2.82,48.18,48.18,0,0,0,4.43-2.22A13.23,13.23,0,0,1,372.6,206.44Z" style="fill:#f0997a"></path></g><path d="M423.72,205.24l4.6-28.5s.31-16.79,6.68-22.35c7.39,2,9.46,6.15,11.36,10.74,2.45,6,2.25,11.59.09,26.75-1.83,12.86-4.08,21-6,25.71-2.31,5.81-7.43,6.3-16.32,5.85s-14.46-1.27-26.8-2.92c-5.93-.8-9.05-2.11-14-3.64a18.63,18.63,0,0,1-5.29-2.39,11,11,0,0,1-3.67-3.8,3.2,3.2,0,0,0-.51-.83,6.23,6.23,0,0,0-.74-.62,6.12,6.12,0,0,1-1.38-1.21,10.05,10.05,0,0,1-.86-1.74,7.59,7.59,0,0,0-.37-.82,5.08,5.08,0,0,0-.58-.72,6.85,6.85,0,0,1-1.49-1.91,1.25,1.25,0,0,1,.13-1.22s-.82-.65-1.09-.89a6.66,6.66,0,0,1-1-1.1.7.7,0,0,1-.18-.54.67.67,0,0,1,.19-.28c1.34-1.29,3.15-.76,4.67-.17,4,1.53,6.13,3.31,10.26,4.4,2.24.59,2.81.7,3.6.45,1.08-.67-3-4.48-3.33-7.68-.16-1.58,1.28-3.53,2.54-1.71,2.65,3.8,4.95,4.79,6.93,7s3.83,3.49,8,4.9C403.71,207.46,423.72,205.24,423.72,205.24Z" style="fill:#ffbda7"></path><path d="M423.72,205.24a48.63,48.63,0,0,1,9.94-.79s-2.49-1.85-9.68-.82Z" style="fill:#f0997a"></path><path d="M368.75,201.83c.81.68,1.68,1.29,2.55,1.89s1.75,1.18,2.63,1.77c.43.29.86.61,1.32.89s.92.54,1.4.77a30.14,30.14,0,0,0,2.89,1.32l-1.38-.79c-.46-.26-.92-.52-1.37-.79s-.9-.54-1.34-.83-.86-.59-1.3-.89c-.89-.59-1.78-1.16-2.69-1.7Z" style="fill:#f0997a"></path><path d="M370.51,205.36a12.72,12.72,0,0,0,1.73,1.79c.62.53,1.27,1,1.93,1.5s1.34.92,2,1.35a17.1,17.1,0,0,0,2.15,1.16c-.67-.47-1.32-.95-2-1.42l-2-1.41-2-1.42C371.78,206.42,371.13,205.89,370.51,205.36Z" style="fill:#f0997a"></path><path d="M400.46,101.42a7.91,7.91,0,0,1-5.68-8.09c.28-3-1.9-3.1-3.35,0-1.9,4.07-1.86,11.17,3.22,14.17C399.18,108.43,401.79,103.54,400.46,101.42Z" style="fill:#7E57C2"></path><g id="freepik--Head--inject-12"><path d="M391.71,127.36l-1.44-.45c-6.47-3.47-6.15-11.92-4.58-16.32,3.51-9.82,14.13-13.49,20.7-13.85,12.45-.68,18.53,2.53,19.82,9,1.69-.15,4,1.21,5.41,3.12,3.06,4.17,6.7,18.69-9.44,34Z" style="fill:#37474f"></path><path d="M425.18,138a5.71,5.71,0,0,0,5.29-2.39c2.89-3.44,3-6.83,1.54-9-1.23-1.8-4.12-2.87-6.07-1.54s-2.1,2.52-2.85,4.06-3.87,1.53-4.86-4.53c-.92-5.66-2-10.84-4.87-13.3-4.3-3.67-8.9-2.87-10.47-.54-1.8-2.58-4.43-3.56-7.21-1.92s-4.78,6-5.33,16.78c-.57,11,2.28,17.8,4.88,19.55,2,1.33,4.13,1.88,8.27,1.91l-.15,4.85s-6.74,15-6.36,24.4c0,0,3.43-6,13.69-14.95l11.15-9.74.58-15.23A3.5,3.5,0,0,0,425.18,138Z" style="fill:#ffbda7"></path><path d="M392.3,119.57l4.22-1a2.09,2.09,0,0,0-2.55-1.64A2.28,2.28,0,0,0,392.3,119.57Z" style="fill:#263238"></path><path d="M407.16,119.67l4.35,1.65a2.23,2.23,0,0,0-1.26-3A2.44,2.44,0,0,0,407.16,119.67Z" style="fill:#263238"></path><path d="M411.47,112.14c.78,1.37,1.09,3.73,1.34,6,.2,1.84.38,6.16,1.62,8.73a6.7,6.7,0,0,0,5.12,4,8.79,8.79,0,0,0,4.32-.44c.85-.39,3.24-2.07,2.95-4.54a5.29,5.29,0,0,1-1.75,1.24,5.13,5.13,0,0,1-1.59.38,4.85,4.85,0,0,1-4.08-2.27c-1.61-2.38-1.5-5.6-2-8.33-.63-3.48-1.23-7.42-4.37-9.15-3.71-2-9.35-.82-10.15,3A5.75,5.75,0,0,1,411.47,112.14Z" style="fill:#37474f"></path><path d="M408.12,134.91l-6.07,1.68a3.16,3.16,0,0,0,4.17,2.1A3,3,0,0,0,408.12,134.91Z" style="fill:#b16668"></path><path d="M404.48,138.8a3.31,3.31,0,0,1,3.44-2.8l.3.05a2.77,2.77,0,0,1-2,2.64A3.59,3.59,0,0,1,404.48,138.8Z" style="fill:#f0997a"></path><polygon points="403.13 121.87 401.85 132.68 395.99 130.4 403.13 121.87" style="fill:#f0997a"></polygon><path d="M403.5,147a38.38,38.38,0,0,0,11.66-2.64c1.35-.59,3.15-3.08,4.62-5.84,0,0-1,5.43-3.91,7.32-4.43,2.88-12.44,3.57-12.44,3.57Z" style="fill:#f0997a"></path><path d="M393.49,123.79c-.31.88.3,1.18,1.15,1.48s1.62.5,1.94-.39a1.64,1.64,0,1,0-3.09-1.09Z" style="fill:#263238"></path><path d="M396.42,123.07a4.15,4.15,0,0,0-1.23-.46,3.36,3.36,0,0,0-1.26-.08,3.9,3.9,0,0,0-1.3.37s-.06.1,0,.1a10.48,10.48,0,0,1,1.16-.1,5.71,5.71,0,0,1,1.42.19,6,6,0,0,1,1.6.61l.52.29c.05,0,.09-.09.06-.13A2.74,2.74,0,0,0,396.42,123.07Z" style="fill:#263238"></path><path d="M410.08,124.64c.2.92-.46,1.13-1.34,1.32s-1.67.27-1.86-.65a1.64,1.64,0,1,1,3.2-.67Z" style="fill:#263238"></path><path d="M407.28,123.53a4.31,4.31,0,0,1,1.28-.28,3.55,3.55,0,0,1,1.26.09,3.83,3.83,0,0,1,1.24.54s0,.11,0,.1c-.34-.08-.63-.18-1.13-.26a6.22,6.22,0,0,0-1.43,0,5.64,5.64,0,0,0-1.67.39c-.18.06-.52.2-.56.22s-.07-.1,0-.14A2.84,2.84,0,0,1,407.28,123.53Z" style="fill:#263238"></path></g><path d="M416.32,103.8A7.89,7.89,0,0,0,422,95.71c-.27-3,1.91-3.1,3.36,0,1.9,4.07,1.86,11.17-3.22,14.17C417.6,110.81,415,105.92,416.32,103.8Z" style="fill:#7E57C2"></path></g></g></g><g id="freepik--speech-bubble--inject-12"><g id="freepik--speech-bubble--inject-12"><g id="freepik--speech-bubble--inject-12"><path d="M378.38,92l-2.73-5.11,2.19-6.33V76.7l-6.7,3.87v3.87l2.88,5a.43.43,0,0,0,.2.18h0Z" style="fill:#7E57C2"></path><path d="M378.38,92l-2.73-5.11,2.19-6.33V76.7l-6.7,3.87v3.87l2.88,5a.43.43,0,0,0,.2.18h0Z" style="opacity:0.2"></path><path d="M394.38,45.94a4.46,4.46,0,0,0-2-3.49l-1.63-.94a4.45,4.45,0,0,0-4,0L361.62,56a4.46,4.46,0,0,0-2,3.49V87.12a4.44,4.44,0,0,0,2,3.48l1.64.94a4.39,4.39,0,0,0,4,0l8.07-4.66,2.88,5a.42.42,0,0,0,.77-.07L382,83l10.33-6a4.44,4.44,0,0,0,2-3.48Z" style="fill:#7E57C2"></path><path d="M359.61,87.12a4.44,4.44,0,0,0,2,3.48l1.64.94a4.5,4.5,0,0,0,3.67.17c-.94.35-1.66-.18-1.66-1.33V62.77a4,4,0,0,1,.59-2l-5.66-3.27a4.16,4.16,0,0,0-.59,2Z" style="opacity:0.2"></path><path d="M394.32,45.36c-.24-.85-1-1.12-1.94-.59l-25.1,14.52a4,4,0,0,0-1.42,1.5l-5.65-3.26a4,4,0,0,1,1.41-1.5l25.09-14.52a4.47,4.47,0,0,1,4,0l1.64,1A4.45,4.45,0,0,1,394.32,45.36Z" style="fill:#fff;opacity:0.30000000000000004"></path></g><path id="freepik--Heart--inject-12" d="M379.49,78.57c-8.63-2.08-9.31-9.23-6.79-14.36,2.27-4.6,6.38-4.77,6.82-.31.48-5,4.6-9.53,6.84-7.51C388.87,58.64,388.15,66.58,379.49,78.57Z" style="fill:#fff"></path></g></g></svg>